<?xml version="1.0" encoding="utf-8"?>
<!-- Generator: Adobe Illustrator 24.0.1, SVG Export Plug-In . SVG Version: 6.00 Build 0)  -->
<svg version="1.1" id="Layer_1" xmlns="http://www.w3.org/2000/svg" xmlns:xlink="http://www.w3.org/1999/xlink" x="0px" y="0px"
	 viewBox="0 0 854 709" style="enable-background:new 0 0 854 709;" xml:space="preserve">
<style type="text/css">
	.st0{fill:#FFFFFF;}
	.st1{fill:#231F20;}
	.st2{fill:#F58706;}
	.st3{fill:#D1D3D4;}
</style>
<g id="_87_coding">
	<rect x="387.2" y="356.4" class="st0" width="84.3" height="21.4"/>
	<path class="st0" d="M226.2,271.7c0,0-3,70.8,5,94.1h36.3c3.8,0,7.2,2.5,8.4,6.2l2,6.5h-92.3c-6.9-4.6-12.8-10.6-17.1-17.7
		c-6.1-10.9-2.4-89.1-2.4-89.1H226.2z"/>
	<path class="st1" d="M277.8,379.6h-92.3c-0.2,0-0.4-0.1-0.6-0.2c-7.1-4.7-13.1-10.9-17.5-18.1c-6.3-11.2-2.7-86.5-2.5-89.7
		c0-0.6,0.5-1.1,1.1-1.1h60.3c0.3,0,0.6,0.1,0.8,0.4c0.2,0.2,0.3,0.5,0.3,0.8c0,0.7-2.8,69.2,4.7,92.9h35.5c4.3,0,8.2,2.8,9.4,7
		l2,6.5c0.1,0.3,0.1,0.7-0.2,1C278.5,379.4,278.1,379.6,277.8,379.6z M185.7,377.3h90.5l-1.5-5c-1-3.2-3.9-5.4-7.3-5.4h-36.3
		c-0.5,0-0.9-0.3-1-0.8c-7.5-21.9-5.4-83.7-5.1-93.3h-58.1c-1.3,27.2-2.4,79.1,2.2,87.4C173.4,367.1,179,372.9,185.7,377.3z"/>
	<path class="st1" d="M170.4,347.2c0,14.7,4.5,19.2,10.3,19.2h23.2c3.3,0,6.2,2,7.3,5.1l2.6,7H178c-9.1,0-15.6-13.9-15.9-28.6
		s0-78.2,0-78.2h8C170.1,271.7,170.4,332.4,170.4,347.2z"/>
	<path class="st1" d="M213.7,379.6H178c-10.3,0-16.8-15.1-17-29.7c-0.3-14.6,0-77.5,0-78.2c0-0.6,0.5-1.1,1.1-1.1h8
		c0.6,0,1.1,0.5,1.1,1.1c0,0.6,0.3,60.9,0.3,75.5c0,18,6.9,18,9.2,18h23.2c3.7,0,7.1,2.3,8.4,5.9l2.6,7c0.1,0.3,0.1,0.7-0.1,1
		C214.4,379.4,214.1,379.6,213.7,379.6z M163.2,272.8c0,8.6-0.3,63.5,0,77c0.3,15.2,6.9,27.5,14.8,27.5h34.1l-2-5.5
		c-0.9-2.7-3.4-4.4-6.3-4.5h-23.2c-7.7,0-11.4-6.7-11.4-20.3c0-13.6-0.2-66-0.3-74.4L163.2,272.8z"/>
	<path class="st1" d="M295,106.2l14,159.8c0.9,6.9-4,13.3-10.9,14.2c-0.5,0.1-1.1,0.1-1.6,0.1H106c-7.9-0.3-14.3-6.4-15-14.3
		L77,106.2c-0.9-6.9,4-13.3,10.9-14.2c0.5-0.1,1.1-0.1,1.6-0.1H280C287.9,92.1,294.4,98.3,295,106.2z"/>
	<path class="st1" d="M296.5,281.3H106c-8.5-0.3-15.4-6.9-16.1-15.3l-14-159.8c-0.4-4.1,0.9-8.1,3.6-11.2c2.6-2.8,6.2-4.4,10-4.3
		H280c8.5,0.3,15.4,6.8,16.2,15.2l14,159.8c0.4,4.1-0.9,8.1-3.6,11.2C304,279.7,300.3,281.4,296.5,281.3z M89.5,93
		c-3.2,0-6.2,1.3-8.4,3.6c-2.3,2.6-3.4,6-3,9.4l14,159.8c0.6,7.3,6.5,13.1,13.9,13.4h190.5c3.2,0,6.2-1.3,8.3-3.6
		c2.3-2.6,3.4-6,3.1-9.5L294,106.2l0,0c-0.6-7.3-6.6-13-13.9-13.3H89.5z"/>
	<path class="st0" d="M295.7,105.5L309.1,258c0.9,6.6-3.8,12.7-10.4,13.5c-0.5,0.1-1,0.1-1.5,0.1H115.3c-7.5-0.3-13.7-6.1-14.3-13.6
		L87.6,105.5c-0.9-6.6,3.8-12.7,10.4-13.5c0.5-0.1,1-0.1,1.6-0.1h181.9C288.9,92.2,295,98,295.7,105.5z"/>
	<path class="st1" d="M297.1,272.8H115.3c-8.2-0.2-14.9-6.5-15.6-14.7L86.3,105.6c-0.4-3.9,0.9-7.9,3.6-10.8
		c2.5-2.7,5.9-4.2,9.6-4.2h181.9c8.1,0.3,14.7,6.6,15.4,14.7l0,0l13.4,152.6c0.4,3.9-0.9,7.8-3.5,10.7
		C304.2,271.3,300.7,272.8,297.1,272.8z M99.4,93c-3,0-5.9,1.2-7.9,3.4c-2.2,2.4-3.2,5.7-2.9,8.9L102,257.9
		c0.6,7,6.3,12.5,13.3,12.7h181.8c3,0,5.9-1.2,7.9-3.4c2.2-2.4,3.2-5.7,2.9-8.9l-13.4-152.6c-0.6-6.9-6.3-12.4-13.2-12.6L99.4,93z"
		/>
	<path class="st0" d="M306.8,232.4L309,258c0.9,6.6-3.8,12.7-10.4,13.5c-0.5,0.1-1,0.1-1.5,0.1H115.3c-7.5-0.3-13.7-6.1-14.3-13.6
		l-2.2-25.6L306.8,232.4z"/>
	<path class="st1" d="M297.1,272.8H115.3c-8.2-0.2-14.9-6.5-15.6-14.7l-2.2-25.6c0-0.3,0.1-0.6,0.3-0.8c0.2-0.2,0.5-0.4,0.8-0.4
		h208.2c0.6,0,1.1,0.5,1.1,1l2.2,25.6c0.4,3.9-0.9,7.8-3.5,10.7C304.1,271.3,300.7,272.8,297.1,272.8z M99.8,233.5L102,258
		c0.6,7,6.3,12.4,13.2,12.6h181.8c3,0,5.9-1.2,7.9-3.4c2.2-2.4,3.2-5.7,2.9-8.9l-2.2-24.6L99.8,233.5z"/>
	
		<ellipse transform="matrix(0.8307 -0.5567 0.5567 0.8307 -105.7365 156.4666)" class="st0" cx="204.4" cy="252.1" rx="8.3" ry="9.1"/>
	<path class="st1" d="M205.2,262c-5.5-0.2-9.9-4.4-10.4-9.9c-0.3-2.6,0.6-5.3,2.4-7.3c1.7-1.8,4-2.8,6.5-2.8
		c5.5,0.2,9.9,4.4,10.4,9.9l0,0c0.3,2.6-0.5,5.3-2.2,7.3C210.1,261.1,207.7,262.1,205.2,262z M203.6,244.3c-1.8,0-3.6,0.7-4.8,2.1
		c-1.3,1.5-2,3.5-1.8,5.6c0.3,4.3,3.8,7.7,8.2,7.8c1.8,0,3.6-0.7,4.8-2.1c1.4-1.5,2-3.5,1.8-5.5l0,0c-0.4-4.3-3.9-7.6-8.2-7.7V244.3
		z"/>
	<path class="st1" d="M102.1,102h178.5c3.9,0.2,7.1,3.2,7.4,7.1l9.4,107.6c0.5,3.4-1.9,6.6-5.4,7.1c-0.3,0-0.5,0.1-0.8,0.1H112.7
		c-3.9-0.2-7.1-3.2-7.4-7.1l-9.4-107.6c-0.5-3.4,2-6.6,5.4-7C101.5,102.1,101.8,102,102.1,102z"/>
	<path class="st0" d="M132.1,115.2h-17.7c-0.6,0-1.1-0.5-1.1-1.1s0.5-1.1,1.1-1.1h17.7c0.6,0,1.1,0.5,1.1,1.1
		S132.7,115.2,132.1,115.2z"/>
	<path class="st2" d="M172.1,115.2h-35.4c-0.6,0-1.1-0.5-1.1-1.1s0.5-1.1,1.1-1.1h35.4c0.6,0,1.1,0.5,1.1,1.1
		S172.7,115.2,172.1,115.2z"/>
	<path class="st2" d="M184.5,122.1h-35.3c-0.6,0-1.1-0.5-1.1-1.1c0-0.6,0.5-1.1,1.1-1.1h35.3c0.6,0,1.1,0.5,1.1,1.1
		C185.6,121.6,185.1,122.1,184.5,122.1z"/>
	<path class="st0" d="M136.5,122.1h-17.7c-0.6,0-1.1-0.5-1.1-1.1c0-0.6,0.5-1.1,1.1-1.1h17.7c0.6,0,1.1,0.5,1.1,1.1
		C137.6,121.6,137.1,122.1,136.5,122.1z"/>
	<path class="st0" d="M141,129.1h-17.7c-0.6,0-1.1-0.5-1.1-1.1c0-0.6,0.5-1.1,1.1-1.1H141c0.6,0,1.1,0.5,1.1,1.1
		C142.1,128.6,141.6,129.1,141,129.1z"/>
	<path class="st2" d="M191.2,129.1h-44.3c-0.6,0-1.1-0.5-1.1-1.1c0-0.6,0.5-1.1,1.1-1.1h44.3c0.6,0,1.1,0.5,1.1,1.1
		C192.3,128.6,191.8,129.1,191.2,129.1z"/>
	<path class="st0" d="M145.4,136h-17.7c-0.6,0-1.1-0.5-1.1-1.1s0.5-1.1,1.1-1.1h17.7c0.6,0,1.1,0.5,1.1,1.1S146,136,145.4,136z"/>
	<path class="st2" d="M200.6,136H148c-0.6,0-1.1-0.5-1.1-1.1s0.5-1.1,1.1-1.1h52.7c0.6,0,1.1,0.5,1.1,1.1S201.2,136,200.6,136z"/>
	<path class="st0" d="M141,143h-17.7c-0.6,0-1.1-0.5-1.1-1.1s0.5-1.1,1.1-1.1H141c0.6,0,1.1,0.5,1.1,1.1S141.6,143,141,143z"/>
	<path class="st2" d="M173.2,143h-28.6c-0.6,0-1.1-0.5-1.1-1.1c0-0.6,0.5-1.1,1.1-1.1h28.6c0.6,0,1.1,0.5,1.1,1.1
		S173.8,143,173.2,143z"/>
	<path class="st2" d="M212.6,143h-28.5c-0.6,0-1.1-0.5-1.1-1.1s0.5-1.1,1.1-1.1h28.5c0.6,0,1.1,0.5,1.1,1.1S213.3,143,212.6,143z"/>
	<path class="st0" d="M141.3,149.9h-17.7c-0.6,0-1.1-0.5-1.1-1.1s0.5-1.1,1.1-1.1h17.7c0.6,0,1.1,0.5,1.1,1.1
		C142.4,149.4,141.9,149.9,141.3,149.9z"/>
	<path class="st2" d="M173.5,149.9h-24.9c-0.6,0-1.1-0.5-1.1-1.1s0.5-1.1,1.1-1.1h24.9c0.6,0,1.1,0.5,1.1,1.1
		C174.6,149.4,174.1,149.9,173.5,149.9z"/>
	<path class="st2" d="M187.9,149.9h-10.2c-0.6,0-1.1-0.5-1.1-1.1s0.5-1.1,1.1-1.1h10.2c0.6,0,1.1,0.5,1.1,1.1
		C189,149.4,188.5,149.9,187.9,149.9z"/>
	<path class="st0" d="M141.6,156.8h-17.7c-0.6,0-1.1-0.5-1.1-1.1c0-0.6,0.5-1.1,1.1-1.1h17.7c0.6,0,1.1,0.5,1.1,1.1
		S142.2,156.8,141.6,156.8z"/>
	<path class="st2" d="M182.7,156.8h-36.4c-0.6,0-1.1-0.5-1.1-1.1s0.5-1.1,1.1-1.1h36.4c0.6,0,1.1,0.5,1.1,1.1
		S183.3,156.8,182.7,156.8z"/>
	<path class="st2" d="M204.6,156.8H187c-0.6,0-1.1-0.5-1.1-1.1s0.5-1.1,1.1-1.1h17.6c0.6,0,1.1,0.5,1.1,1.1S205.2,156.8,204.6,156.8
		z"/>
	<path class="st0" d="M129.4,163.8h-9.4c-0.6,0-1.1-0.5-1.1-1.1s0.5-1.1,1.1-1.1h9.4c0.6,0,1.1,0.5,1.1,1.1S130,163.8,129.4,163.8z"
		/>
	<path class="st2" d="M178.2,163.8h-41.1c-0.6,0-1.1-0.5-1.1-1.1s0.5-1.1,1.1-1.1h41.1c0.6,0,1.1,0.5,1.1,1.1
		S178.8,163.8,178.2,163.8z"/>
	<path class="st0" d="M138,170.7h-17.7c-0.6,0-1.1-0.5-1.1-1.1s0.5-1.1,1.1-1.1H138c0.6,0,1.1,0.5,1.1,1.1S138.6,170.7,138,170.7z"
		/>
	<path class="st0" d="M158.5,177.6h-35.4c-0.6,0-1.1-0.5-1.1-1.1s0.5-1.1,1.1-1.1h35.4c0.6,0,1.1,0.5,1.1,1.1
		S159.1,177.6,158.5,177.6z"/>
	<path class="st2" d="M189,177.6h-24.6c-0.6,0-1.1-0.5-1.1-1.1c0-0.6,0.5-1.1,1.1-1.1H189c0.6,0,1.1,0.5,1.1,1.1
		S189.6,177.6,189,177.6z"/>
	<path class="st2" d="M223,177.6h-30.5c-0.6,0-1.1-0.5-1.1-1.1c0-0.6,0.5-1.1,1.1-1.1H223c0.6,0,1.1,0.5,1.1,1.1
		S223.6,177.6,223,177.6z"/>
	<path class="st0" d="M176.5,184.6h-51.6c-0.6,0-1.1-0.5-1.1-1.1s0.5-1.1,1.1-1.1h51.6c0.6,0,1.1,0.5,1.1,1.1
		S177.1,184.6,176.5,184.6z"/>
	<path class="st2" d="M203.3,184.6h-23.2c-0.6,0-1.1-0.5-1.1-1.1s0.5-1.1,1.1-1.1h23.2c0.6,0,1.1,0.5,1.1,1.1
		S203.9,184.6,203.3,184.6z"/>
	<path class="st2" d="M276.2,184.6h-69c-0.6,0-1.1-0.5-1.1-1.1s0.5-1.1,1.1-1.1h69c0.6,0,1.1,0.5,1.1,1.1S276.8,184.6,276.2,184.6z"
		/>
	<path class="st0" d="M149.4,191.5H125c-0.6,0-1.1-0.5-1.1-1.1s0.5-1.1,1.1-1.1h24.4c0.6,0,1.1,0.5,1.1,1.1S150,191.5,149.4,191.5z"
		/>
	<path class="st2" d="M172.2,191.5h-17.9c-0.6,0-1.1-0.5-1.1-1.1c0-0.6,0.5-1.1,1.1-1.1h17.9c0.6,0,1.1,0.5,1.1,1.1
		C173.3,191,172.9,191.5,172.2,191.5z"/>
	<path class="st2" d="M195,191.5h-17.9c-0.6,0-1.1-0.5-1.1-1.1c0-0.6,0.5-1.1,1.1-1.1H195c0.6,0,1.1,0.5,1.1,1.1
		C196.1,191,195.7,191.5,195,191.5z"/>
	<path class="st0" d="M168.4,198.5h-43.1c-0.6,0-1.1-0.5-1.1-1.1c0-0.6,0.5-1.1,1.1-1.1h43.1c0.6,0,1.1,0.5,1.1,1.1
		S169,198.5,168.4,198.5z"/>
	<path class="st2" d="M195.3,198.5h-21.6c-0.6,0-1.1-0.5-1.1-1.1s0.5-1.1,1.1-1.1h21.6c0.6,0,1.1,0.5,1.1,1.1
		S195.9,198.5,195.3,198.5z"/>
	<path class="st2" d="M233.5,198.5h-32.9c-0.6,0-1.1-0.5-1.1-1.1c0-0.6,0.5-1.1,1.1-1.1h32.9c0.6,0,1.1,0.5,1.1,1.1
		C234.6,198,234.1,198.5,233.5,198.5z"/>
	<path class="st2" d="M269.8,198.5h-32.9c-0.6,0-1.1-0.5-1.1-1.1s0.5-1.1,1.1-1.1h32.9c0.6,0,1.1,0.5,1.1,1.1
		C270.9,198,270.4,198.5,269.8,198.5z"/>
	<path class="st0" d="M162.2,205.4h-25.7c-0.6,0-1.1-0.5-1.1-1.1c0-0.6,0.5-1.1,1.1-1.1h25.7c0.6,0,1.1,0.5,1.1,1.1
		S162.8,205.4,162.2,205.4z"/>
	<path class="st2" d="M192.8,205.4h-25.7c-0.6,0-1.1-0.5-1.1-1.1s0.5-1.1,1.1-1.1h25.7c0.6,0,1.1,0.5,1.1,1.1
		C193.9,204.9,193.4,205.4,192.8,205.4z"/>
	<path class="st2" d="M223.5,205.4h-25.6c-0.6,0-1.1-0.5-1.1-1.1s0.5-1.1,1.1-1.1h25.7c0.6,0,1.1,0.5,1.1,1.1c0,0.6-0.5,1.1-1.1,1.1
		C223.6,205.4,223.6,205.4,223.5,205.4z"/>
	<path class="st2" d="M255.4,206.2h-25.7c-0.6,0-1.1-0.5-1.1-1.1s0.5-1.1,1.1-1.1h25.7c0.6,0,1.1,0.5,1.1,1.1
		S256.1,206.2,255.4,206.2z"/>
	<path class="st0" d="M158.3,212.3h-17.7c-0.6,0-1.1-0.5-1.1-1.1s0.5-1.1,1.1-1.1h17.7c0.6,0,1.1,0.5,1.1,1.1
		S158.9,212.3,158.3,212.3z"/>
	<path class="st2" d="M180.2,212.3h-17.7c-0.6,0-1.1-0.5-1.1-1.1s0.5-1.1,1.1-1.1h17.7c0.6,0,1.1,0.5,1.1,1.1
		S180.9,212.3,180.2,212.3z"/>
	<path class="st2" d="M221.2,213L221.2,213l-36.7-0.7c-0.6,0-1.1-0.5-1.1-1.1s0.5-1.1,1.1-1.1l0,0l36.6,0.7c0.6,0,1.1,0.5,1.1,1.1
		c0,0,0,0,0,0C222.3,212.5,221.8,213,221.2,213z"/>
	<path class="st2" d="M231.8,136h-24c-0.6,0-1.1-0.5-1.1-1.1s0.5-1.1,1.1-1.1h24c0.6,0,1.1,0.5,1.1,1.1S232.4,136,231.8,136z"/>
	<path class="st2" d="M249.4,136.1c-2.8,0.1-5.7,0.1-8.5,0c-0.6-0.2-0.9-0.8-0.8-1.4c0,0,0,0,0-0.1c0.2-0.5,0.7-0.9,1.3-0.8
		c1.2,0,16.8,0,27.1,0l0,0c0.6,0,1.1,0.5,1.1,1.1s-0.5,1.1-1.1,1.1L249.4,136.1z"/>
	<path class="st2" d="M227.4,122.1h-34.8c-0.6,0-1.1-0.5-1.1-1.1c0-0.6,0.5-1.1,1.1-1.1h34.8c0.6,0,1.1,0.5,1.1,1.1
		C228.5,121.6,228,122.1,227.4,122.1z"/>
	<path class="st2" d="M269,122.1h-34.6c-0.6,0-1.1-0.5-1.1-1.1c0-0.6,0.5-1.1,1.1-1.1H269c0.6,0,1.1,0.5,1.1,1.1
		C270.1,121.6,269.6,122.1,269,122.1z"/>
	<path class="st2" d="M195,115.2c-7.1,0-12,0-12.2,0c-0.6-0.1-1-0.7-0.9-1.3c0,0,0,0,0,0c0.1-0.6,0.6-1,1.2-0.9c1.2,0,29.3,0,40,0
		l0,0c0.6,0,1.1,0.5,1.1,1.1s-0.5,1.1-1.1,1.1L195,115.2z"/>
	<path class="st0" d="M232.6,115.2c-0.4,0-0.8-0.3-1-0.6c-0.3-0.5,0-1.2,0.5-1.5c0,0,0,0,0,0c0.3-0.1,0.7-0.4,24.3-0.1
		c0.6,0,1.1,0.5,1.1,1.1c0,0.6-0.5,1.1-1.1,1.1c-8.5,0-22.3-0.2-23.5,0L232.6,115.2z"/>
	<path class="st2" d="M200.9,163.8h-17.9c-0.6,0-1.1-0.5-1.1-1.1s0.5-1.1,1.1-1.1h17.9c0.6,0,1.1,0.5,1.1,1.1
		S201.5,163.8,200.9,163.8z"/>
	<path class="st2" d="M160,170.7h-13.1c-0.6,0-1.1-0.5-1.1-1.1s0.5-1.1,1.1-1.1H160c0.6,0,1.1,0.5,1.1,1.1S160.6,170.7,160,170.7z"
		/>
	<path class="st0" d="M196.4,170.7h-31.3c-0.6,0-1.1-0.5-1.1-1.1s0.5-1.1,1.1-1.1h31.3c0.6,0,1.1,0.5,1.1,1.1S197,170.7,196.4,170.7
		z"/>
	<path class="st2" d="M263.5,170.7h-60.8c-0.6,0-1.1-0.5-1.1-1.1s0.5-1.1,1.1-1.1h60.8c0.6,0,1.1,0.5,1.1,1.1
		S264.1,170.7,263.5,170.7z"/>
	<path class="st0" d="M596.6,271.7c0,0,3,70.8-5,94.1h-36.3c-3.8,0-7.2,2.5-8.3,6.2l-1.9,6.5h92.3c6.9-4.6,12.8-10.6,17.1-17.7
		c6.2-10.9,2.4-89.1,2.4-89.1L596.6,271.7z"/>
	<path class="st1" d="M637.3,379.6H545c-0.4,0-0.7-0.2-0.9-0.4c-0.2-0.3-0.3-0.6-0.2-1l2-6.5c1.2-4.2,5.1-7,9.4-7h35.5
		c7.5-23.6,4.7-92.2,4.7-92.9c0-0.3,0.1-0.6,0.3-0.8c0.2-0.2,0.5-0.4,0.8-0.4h60.3c0.6,0,1.1,0.5,1.1,1.1c0.2,3.2,3.8,78.6-2.5,89.7
		c-4.4,7.3-10.4,13.5-17.5,18.1C637.8,379.5,637.6,379.6,637.3,379.6z M546.5,377.3H637c6.7-4.5,12.3-10.3,16.5-17.1
		c4.7-8.3,3.6-60.2,2.2-87.4h-58c0.4,9.6,2.4,71.5-5.1,93.3c-0.2,0.5-0.6,0.8-1.1,0.8h-36.3c-3.4,0-6.3,2.2-7.3,5.4L546.5,377.3z"/>
	<path class="st1" d="M652.4,347.2c0,14.7-4.5,19.2-10.3,19.2h-23.2c-3.3,0-6.2,2-7.3,5.1l-2.5,7h35.7c9.2,0,15.6-13.9,15.9-28.6
		s0-78.2,0-78.2h-8C652.7,271.7,652.4,332.4,652.4,347.2z"/>
	<path class="st1" d="M644.7,379.6H609c-0.4,0-0.7-0.2-0.9-0.5c-0.2-0.3-0.3-0.7-0.1-1l2.5-7c1.3-3.5,4.6-5.8,8.4-5.9H642
		c2.2,0,9.2,0,9.2-18c0-14.6,0.3-74.9,0.3-75.5c0-0.6,0.5-1.1,1.1-1.1h8c0.6,0,1.1,0.5,1.1,1.1c0,0.6,0.3,63.6,0,78.2
		S655,379.6,644.7,379.6z M610.6,377.3h34.1c7.9,0,14.5-12.4,14.8-27.5c0.3-13.5,0-68.5,0-77h-5.7c0,8.4-0.3,60.9-0.3,74.4
		c0,13.5-3.8,20.3-11.5,20.3h-23.2c-2.8,0-5.3,1.8-6.3,4.5L610.6,377.3z"/>
	<path class="st1" d="M527.7,106.2l-14,159.8c-0.9,6.9,4,13.3,11,14.1c0.5,0.1,1,0.1,1.5,0.1h190.5c7.9-0.3,14.3-6.4,15-14.3
		l14-159.8c0.9-6.9-4-13.3-10.9-14.2c-0.5-0.1-1.1-0.1-1.6-0.1H542.7C534.8,92.1,528.4,98.3,527.7,106.2z"/>
	<path class="st1" d="M716.8,281.3H526.2c-3.8,0-7.4-1.6-10-4.5c-2.7-3-4.1-7.1-3.6-11.2l14-159.7c0.7-8.4,7.6-15,16.1-15.3h190.5
		c3.8,0,7.4,1.5,10,4.3c2.7,3,4.1,7.1,3.6,11.2l-14,159.8C732.2,274.4,725.2,281,716.8,281.3z M542.7,93c-7.3,0.3-13.3,6-13.9,13.3
		l0,0l-14,159.8c-0.4,3.4,0.7,6.9,3.1,9.5c2.1,2.3,5.2,3.6,8.3,3.6h190.5c7.4-0.3,13.3-6.1,13.9-13.4l14-159.7
		c0.4-3.4-0.7-6.9-3-9.5c-2.1-2.3-5.2-3.6-8.4-3.6L542.7,93z"/>
	<path class="st0" d="M527.1,105.5L513.7,258c-0.9,6.6,3.8,12.7,10.5,13.5c0.5,0.1,1,0.1,1.5,0.1h182c7.5-0.3,13.7-6.1,14.3-13.6
		l13.4-152.5c0.9-6.6-3.8-12.7-10.4-13.5c-0.5-0.1-1-0.1-1.6-0.1h-182C533.9,92.1,527.7,98,527.1,105.5z"/>
	<path class="st1" d="M707.6,272.8H525.7c-3.6,0-7.1-1.5-9.6-4.2c-2.6-2.9-3.9-6.8-3.5-10.7L526,105.4l0,0
		c0.7-8.1,7.3-14.4,15.4-14.7h181.9c3.6,0,7,1.4,9.5,4.1c2.6,2.9,3.9,6.8,3.5,10.7L723,258.1C722.3,266.2,715.7,272.5,707.6,272.8z
		 M528.2,105.6l-13.4,152.6c-0.3,3.3,0.7,6.5,2.9,8.9c2,2.2,4.9,3.5,7.9,3.4h182c7-0.3,12.6-5.7,13.2-12.6l13.4-152.6
		c0.3-3.3-0.7-6.5-2.9-8.9c-2-2.2-4.9-3.5-7.9-3.4h-182C534.4,93.2,528.8,98.7,528.2,105.6L528.2,105.6z"/>
	<path class="st0" d="M516,232.4l-2.2,25.6c-0.9,6.6,3.8,12.7,10.5,13.5c0.5,0.1,1,0.1,1.5,0.1h181.9c7.5-0.3,13.7-6.1,14.3-13.6
		l2.2-25.6L516,232.4z"/>
	<path class="st1" d="M707.6,272.8H525.7c-3.6,0-7.1-1.5-9.6-4.2c-2.6-2.9-3.9-6.8-3.5-10.7l2.2-25.6c0-0.6,0.5-1,1.1-1h208.2
		c0.3,0,0.6,0.1,0.8,0.4c0.2,0.2,0.3,0.5,0.3,0.8l-2.2,25.6C722.3,266.2,715.7,272.5,707.6,272.8z M517,233.5l-2.2,24.6
		c-0.3,3.3,0.7,6.5,2.9,8.9c2,2.2,4.9,3.5,7.9,3.4h182c7-0.3,12.6-5.7,13.2-12.6l2.1-24.4L517,233.5z"/>
	<ellipse transform="matrix(0.5567 -0.8307 0.8307 0.5567 64.7104 625.3536)" class="st0" cx="618.3" cy="252" rx="9.1" ry="8.3"/>
	<path class="st1" d="M617.6,262c-2.5,0-4.8-1-6.5-2.8c-1.8-2-2.6-4.6-2.4-7.3c0.5-5.4,4.9-9.7,10.4-9.9c2.5,0,4.8,1,6.5,2.8
		c1.8,2,2.6,4.6,2.4,7.3C627.5,257.6,623,261.8,617.6,262z M619.1,244.3c-4.3,0.2-7.8,3.5-8.2,7.8c-0.2,2,0.4,4,1.8,5.5
		c1.2,1.4,3,2.1,4.8,2.1c4.3-0.2,7.8-3.5,8.2-7.8c0.2-2-0.4-4-1.8-5.5c-1.3-1.3-3-2-4.8-2V244.3z"/>
	<path class="st1" d="M720.7,102H542.3c-3.9,0.1-7.1,3.2-7.4,7.1l-9.4,107.6c-0.5,3.4,2,6.6,5.4,7.1c0.3,0,0.5,0.1,0.8,0.1H710
		c3.9-0.1,7.1-3.2,7.4-7.1l9.4-107.6c0.5-3.4-2-6.6-5.4-7C721.2,102.1,720.9,102,720.7,102z"/>
	<path class="st0" d="M572.1,115.2h-17.7c-0.6,0-1.1-0.5-1.1-1.1s0.5-1.1,1.1-1.1h17.7c0.6,0,1.1,0.5,1.1,1.1
		S572.7,115.2,572.1,115.2z"/>
	<path class="st2" d="M612.1,115.2h-35.4c-0.6,0-1.1-0.5-1.1-1.1s0.5-1.1,1.1-1.1h35.4c0.6,0,1.1,0.5,1.1,1.1
		S612.7,115.2,612.1,115.2z"/>
	<path class="st2" d="M623,122.1h-35.4c-0.6,0-1.1-0.5-1.1-1.1c0-0.6,0.5-1.1,1.1-1.1H623c0.6,0,1.1,0.5,1.1,1.1
		C624.1,121.6,623.6,122.1,623,122.1z"/>
	<path class="st0" d="M575,122.1h-17.7c-0.6,0-1.1-0.5-1.1-1.1c0-0.6,0.5-1.1,1.1-1.1H575c0.6,0,1.1,0.5,1.1,1.1
		C576.1,121.6,575.6,122.1,575,122.1z"/>
	<path class="st0" d="M577.9,129.1h-17.7c-0.6,0-1.1-0.5-1.1-1.1c0-0.6,0.5-1.1,1.1-1.1h17.7c0.6,0,1.1,0.5,1.1,1.1
		C579,128.6,578.5,129.1,577.9,129.1z"/>
	<path class="st2" d="M628.1,129.1h-44.3c-0.6,0-1.1-0.5-1.1-1.1c0-0.6,0.5-1.1,1.1-1.1h44.3c0.6,0,1.1,0.5,1.1,1.1
		C629.2,128.6,628.7,129.1,628.1,129.1z"/>
	<path class="st0" d="M580.8,136H563c-0.6,0-1.1-0.5-1.1-1.1s0.5-1.1,1.1-1.1h17.7c0.6,0,1.1,0.5,1.1,1.1S581.4,136,580.8,136z"/>
	<path class="st2" d="M636,136h-52.7c-0.6,0-1.1-0.5-1.1-1.1s0.5-1.1,1.1-1.1H636c0.6,0,1.1,0.5,1.1,1.1S636.6,136,636,136L636,136z
		"/>
	<path class="st0" d="M574.8,143h-17.7c-0.6,0-1.1-0.5-1.1-1.1s0.5-1.1,1.1-1.1h17.7c0.6,0,1.1,0.5,1.1,1.1
		C575.9,142.5,575.4,142.9,574.8,143z"/>
	<path class="st2" d="M607,143h-28.6c-0.6,0-1.1-0.5-1.1-1.1s0.5-1.1,1.1-1.1H607c0.6,0,1.1,0.5,1.1,1.1
		C608.1,142.5,607.6,142.9,607,143z"/>
	<path class="st2" d="M646.4,143h-28.7c-0.6,0-1.1-0.5-1.1-1.1s0.5-1.1,1.1-1.1h28.6c0.6,0,1.1,0.5,1.1,1.1
		C647.5,142.4,647,142.9,646.4,143z"/>
	<path class="st0" d="M573.5,149.9h-17.7c-0.6,0-1.1-0.5-1.1-1.1s0.5-1.1,1.1-1.1h17.7c0.6,0,1.1,0.5,1.1,1.1
		C574.6,149.4,574.1,149.9,573.5,149.9z"/>
	<path class="st2" d="M605.7,149.9h-24.9c-0.6,0-1.1-0.5-1.1-1.1s0.5-1.1,1.1-1.1h24.9c0.6,0,1.1,0.5,1.1,1.1
		C606.8,149.4,606.3,149.9,605.7,149.9z"/>
	<path class="st2" d="M620,149.9h-10.2c-0.6,0-1.1-0.5-1.1-1.1s0.5-1.1,1.1-1.1H620c0.6,0,1.1,0.5,1.1,1.1
		C621.1,149.4,620.6,149.9,620,149.9z"/>
	<path class="st0" d="M572.3,156.8h-17.7c-0.6,0-1.1-0.5-1.1-1.1s0.5-1.1,1.1-1.1h17.7c0.6,0,1.1,0.5,1.1,1.1
		C573.4,156.3,572.9,156.8,572.3,156.8z"/>
	<path class="st2" d="M613.3,156.8h-36.4c-0.6,0-1.1-0.5-1.1-1.1c0-0.6,0.5-1.1,1.1-1.1h36.4c0.6,0,1.1,0.5,1.1,1.1
		C614.4,156.3,613.9,156.8,613.3,156.8z"/>
	<path class="st2" d="M635.4,156.8h-17.6c-0.6,0-1.1-0.5-1.1-1.1s0.5-1.1,1.1-1.1h17.7c0.6,0,1.1,0.5,1.1,1.1c0,0.6-0.5,1.1-1.1,1.1
		C635.5,156.8,635.5,156.8,635.4,156.8z"/>
	<path class="st0" d="M558.5,163.8h-9.4c-0.6,0-1.1-0.5-1.1-1.1s0.5-1.1,1.1-1.1h9.4c0.6,0,1.1,0.5,1.1,1.1S559.1,163.8,558.5,163.8
		z"/>
	<path class="st2" d="M607.4,163.8h-41.1c-0.6,0-1.1-0.5-1.1-1.1s0.5-1.1,1.1-1.1h41.1c0.6,0,1.1,0.5,1.1,1.1S608,163.8,607.4,163.8
		z"/>
	<path class="st0" d="M565.6,170.7h-17.8c-0.6,0-1.1-0.5-1.1-1.1c0-0.6,0.5-1.1,1.1-1.1h17.8c0.6,0,1.1,0.5,1.1,1.1
		C566.7,170.2,566.2,170.7,565.6,170.7z"/>
	<path class="st0" d="M584.5,177.6h-35.4c-0.6,0-1.1-0.5-1.1-1.1s0.5-1.1,1.1-1.1h35.4c0.6,0,1.1,0.5,1.1,1.1
		S585.2,177.6,584.5,177.6z"/>
	<path class="st2" d="M615,177.6h-24.6c-0.6,0-1.1-0.5-1.1-1.1c0-0.6,0.5-1.1,1.1-1.1H615c0.6,0,1.1,0.5,1.1,1.1
		S615.6,177.6,615,177.6z"/>
	<path class="st2" d="M649.1,177.6h-30.5c-0.6,0-1.1-0.5-1.1-1.1s0.5-1.1,1.1-1.1h30.5c0.6,0,1.1,0.5,1.1,1.1
		S649.7,177.6,649.1,177.6z"/>
	<path class="st0" d="M601,184.6h-51.6c-0.6,0-1.1-0.5-1.1-1.1s0.5-1.1,1.1-1.1H601c0.6,0,1.1,0.5,1.1,1.1S601.6,184.6,601,184.6z"
		/>
	<path class="st2" d="M627.7,184.6h-23.2c-0.6,0-1.1-0.5-1.1-1.1s0.5-1.1,1.1-1.1h23.2c0.6,0,1.1,0.5,1.1,1.1
		S628.3,184.6,627.7,184.6z"/>
	<path class="st2" d="M700.7,184.6h-69c-0.6,0-1.1-0.5-1.1-1.1s0.5-1.1,1.1-1.1h69c0.6,0,1.1,0.5,1.1,1.1S701.3,184.6,700.7,184.6z"
		/>
	<path class="st0" d="M572.3,191.5H548c-0.6,0-1.1-0.5-1.1-1.1s0.5-1.1,1.1-1.1h24.4c0.6,0,1.1,0.5,1.1,1.1S573,191.5,572.3,191.5
		L572.3,191.5z"/>
	<path class="st2" d="M595.2,191.5h-18c-0.6,0-1.1-0.5-1.1-1.1c0-0.6,0.5-1.1,1.1-1.1h18c0.6,0,1.1,0.5,1.1,1.1
		C596.3,191,595.8,191.5,595.2,191.5z"/>
	<path class="st2" d="M618,191.5h-18c-0.6,0-1.1-0.5-1.1-1.1c0-0.6,0.5-1.1,1.1-1.1h18c0.6,0,1.1,0.5,1.1,1.1
		C619,191,618.6,191.5,618,191.5z"/>
	<path class="st0" d="M589.8,198.5h-43.1c-0.6,0-1.1-0.5-1.1-1.1s0.5-1.1,1.1-1.1h43.1c0.6,0,1.1,0.5,1.1,1.1
		S590.4,198.5,589.8,198.5z"/>
	<path class="st2" d="M616.7,198.5h-21.6c-0.6,0-1.1-0.5-1.1-1.1c0-0.6,0.5-1.1,1.1-1.1h21.6c0.6,0,1.1,0.5,1.1,1.1
		S617.3,198.5,616.7,198.5z"/>
	<path class="st2" d="M654.8,198.5H622c-0.6,0-1.1-0.5-1.1-1.1s0.5-1.1,1.1-1.1h32.9c0.6,0,1.1,0.5,1.1,1.1S655.5,198.5,654.8,198.5
		z"/>
	<path class="st2" d="M691.1,198.5h-32.8c-0.6,0-1.1-0.5-1.1-1.1s0.5-1.1,1.1-1.1h32.8c0.6,0,1.1,0.5,1.1,1.1
		S691.8,198.5,691.1,198.5z"/>
	<path class="st0" d="M582.1,205.4h-25.8c-0.6,0-1.1-0.5-1.1-1.1c0-0.6,0.5-1.1,1.1-1.1h25.8c0.6,0,1.1,0.5,1.1,1.1
		S582.7,205.4,582.1,205.4z"/>
	<path class="st2" d="M612.6,205.4h-25.7c-0.6,0-1.1-0.5-1.1-1.1s0.5-1.1,1.1-1.1h25.7c0.6,0,1.1,0.5,1.1,1.1
		C613.7,204.9,613.2,205.4,612.6,205.4z"/>
	<path class="st2" d="M643.4,205.4h-25.7c-0.6,0-1.1-0.5-1.1-1.1c0-0.6,0.5-1.1,1.1-1.1h25.7c0.6,0,1.1,0.5,1.1,1.1
		C644.5,204.9,644,205.4,643.4,205.4z"/>
	<path class="st2" d="M675.1,206.2h-25.7c-0.6,0-1.1-0.5-1.1-1.1s0.5-1.1,1.1-1.1h25.7c0.6,0,1.1,0.5,1.1,1.1
		S675.7,206.2,675.1,206.2z"/>
	<path class="st0" d="M576.6,212.3h-17.7c-0.6,0-1.1-0.5-1.1-1.1s0.5-1.1,1.1-1.1h17.7c0.6,0,1.1,0.5,1.1,1.1
		S577.2,212.3,576.6,212.3z"/>
	<path class="st2" d="M598.5,212.3h-17.8c-0.6,0-1.1-0.5-1.1-1.1s0.5-1.1,1.1-1.1h17.8c0.6,0,1.1,0.5,1.1,1.1
		S599.1,212.3,598.5,212.3z"/>
	<path class="st2" d="M639.3,213L639.3,213l-36.5-0.7c-0.6,0-1.1-0.5-1.1-1.1c0,0,0,0,0,0c0-0.6,0.4-1.1,1-1.1c0,0,0.1,0,0.1,0
		l36.5,0.7c0.6,0,1.1,0.5,1.1,1.1C640.5,212.6,640,213.1,639.3,213C639.3,213,639.3,213,639.3,213z"/>
	<path class="st2" d="M667.1,136h-24c-0.6,0-1.1-0.5-1.1-1.1s0.5-1.1,1.1-1.1h24c0.6,0,1.1,0.5,1.1,1.1S667.7,136,667.1,136
		L667.1,136z"/>
	<path class="st2" d="M684.8,136.1c-2.9,0.1-5.7,0.1-8.6-0.1c-0.6-0.1-1-0.8-0.8-1.4s0.8-1,1.4-0.8c1.2,0,16.8,0,27.1,0l0,0
		c0.6,0,1.1,0.5,1.1,1.1s-0.5,1.1-1.1,1.1L684.8,136.1z"/>
	<path class="st2" d="M665.8,122.1H631c-0.6,0-1.1-0.5-1.1-1.1c0-0.6,0.5-1.1,1.1-1.1h34.8c0.6,0,1.1,0.5,1.1,1.1
		C666.9,121.6,666.4,122.1,665.8,122.1z"/>
	<path class="st2" d="M707.5,122.1h-34.6c-0.6,0-1.1-0.5-1.1-1.1c0-0.6,0.5-1.1,1.1-1.1h34.6c0.6,0,1.1,0.5,1.1,1.1
		C708.6,121.6,708.1,122.1,707.5,122.1L707.5,122.1z"/>
	<path class="st2" d="M635.1,115.2c-7.1,0-12.1,0-12.3,0c-0.6-0.1-1-0.7-0.9-1.3c0,0,0,0,0,0c0.1-0.6,0.6-1,1.2-0.9
		c1.3,0,29.3,0,40,0l0,0c0.6,0,1.1,0.5,1.1,1.1c0,0.6-0.5,1.1-1.1,1.1L635.1,115.2z"/>
	<path class="st0" d="M672.6,115.2c-0.4,0-0.9-0.3-1-0.7c-0.2-0.6,0-1.2,0.6-1.5c0,0,0,0,0,0c0.3,0,0.8-0.3,24.3,0
		c0.6,0,1.1,0.5,1.1,1.1s-0.5,1.1-1.1,1.1l0,0c-8.5,0-22.3-0.2-23.6,0L672.6,115.2z"/>
	<path class="st2" d="M630.1,163.8h-17.9c-0.6,0-1.1-0.5-1.1-1.1s0.5-1.1,1.1-1.1h17.9c0.6,0,1.1,0.5,1.1,1.1
		S630.7,163.8,630.1,163.8z"/>
	<path class="st2" d="M587.6,170.7h-13.2c-0.6,0-1.1-0.5-1.1-1.1s0.5-1.1,1.1-1.1h13.2c0.6,0,1.1,0.5,1.1,1.1
		C588.7,170.2,588.2,170.7,587.6,170.7z"/>
	<path class="st0" d="M624,170.7h-31.3c-0.6,0-1.1-0.5-1.1-1.1c0-0.6,0.5-1.1,1.1-1.1H624c0.6,0,1.1,0.5,1.1,1.1
		C625.1,170.2,624.6,170.7,624,170.7z"/>
	<path class="st2" d="M691.1,170.7h-60.8c-0.6,0-1.1-0.5-1.1-1.1c0-0.6,0.5-1.1,1.1-1.1h60.8c0.6,0,1.1,0.5,1.1,1.1
		S691.7,170.7,691.1,170.7z"/>
	<rect x="212.6" y="361.6" class="st0" width="209.1" height="15.8"/>
	<path class="st1" d="M421.8,378.6H212.6c-0.6,0-1.1-0.5-1.1-1.1v-15.8c0-0.6,0.5-1.1,1.1-1.1h209.1c0.6,0,1.1,0.5,1.1,1.1v15.8
		C422.9,378.1,422.4,378.6,421.8,378.6z M213.8,376.3h206.9v-13.5H213.8V376.3z"/>
	<rect x="102.4" y="406.6" class="st0" width="46.8" height="111.2"/>
	<path class="st1" d="M149.2,518.9h-46.9c-0.6,0-1.1-0.5-1.1-1.1V406.6c0-0.6,0.5-1.1,1.1-1.1h46.9c0.6,0,1.1,0.5,1.1,1.1v111.2
		C150.3,518.4,149.8,518.9,149.2,518.9z M103.5,516.7h44.7v-109h-44.7L103.5,516.7z"/>
	<rect x="685.2" y="406.6" class="st0" width="46.8" height="111.2"/>
	<path class="st1" d="M732,518.9h-46.8c-0.6,0-1.1-0.5-1.1-1.1V406.6c0-0.6,0.5-1.1,1.1-1.1H732c0.6,0,1.1,0.5,1.1,1.1v111.2
		C733.1,518.4,732.6,518.9,732,518.9L732,518.9z M686.4,516.7h44.6v-109h-44.6L686.4,516.7z"/>
	<rect x="102.4" y="406.6" class="st1" width="46.8" height="28.8"/>
	<path class="st1" d="M149.2,436.5h-46.9c-0.6,0-1.1-0.5-1.1-1.1v-28.8c0-0.6,0.5-1.1,1.1-1.1h46.9c0.6,0,1.1,0.5,1.1,1.1v28.8
		C150.3,436,149.8,436.5,149.2,436.5C149.2,436.5,149.2,436.5,149.2,436.5z M103.5,434.3h44.7v-26.6h-44.7L103.5,434.3z"/>
	<rect x="685.2" y="406.6" class="st1" width="46.8" height="28.8"/>
	<path class="st1" d="M732,436.5h-46.8c-0.6,0-1.1-0.5-1.1-1.1v-28.8c0-0.6,0.5-1.1,1.1-1.1H732c0.6,0,1.1,0.5,1.1,1.1v28.8
		C733.2,436,732.7,436.5,732,436.5C732.1,436.5,732,436.5,732,436.5z M686.4,434.3h44.6v-26.6h-44.6L686.4,434.3z"/>
	<rect x="73.8" y="378.8" class="st0" width="686.8" height="27.8"/>
	<path class="st1" d="M760.6,407.7H73.8c-0.6,0-1.1-0.5-1.1-1.1v-27.8c0-0.6,0.5-1.1,1.1-1.1h686.8c0.6,0,1.1,0.5,1.1,1.1v27.8
		C761.7,407.2,761.2,407.7,760.6,407.7z M74.9,405.4h684.5v-25.5H74.9L74.9,405.4z"/>
	<path class="st1" d="M576.9,378.9h63c1.1,0-7.3-27.1-27.5-27.8C592.2,350.3,576.9,378.9,576.9,378.9z"/>
	<path class="st1" d="M639.9,380h-63c-0.6,0-1.1-0.5-1.1-1.1c0-0.2,0-0.4,0.1-0.6c0.6-1.2,15.9-29.2,36.5-28.5
		c19.8,0.7,28.7,25.5,28.7,28.7C641.2,379.4,640.7,380,639.9,380C640,380,639.9,380,639.9,380z M578.9,377.8h59.9
		c-1-5-9.8-25-26.4-25.6h-0.8C595.5,352.2,582.4,371.9,578.9,377.8z"/>
	<path class="st1" d="M340.9,422.4c0,0-100.7,24.2-103.8,42c-3.1,17.8,4.8,52.7,4.8,52.7h259.5c0,0,12.3-73.4,0-101.3
		C489.1,387.9,340.9,422.4,340.9,422.4z"/>
	<path class="st1" d="M501.5,518.1H242c-0.5,0-1-0.4-1.1-0.9c-0.3-1.4-7.9-35.3-4.8-53.1c3.1-18.3,100.5-41.9,104.7-42.9l0,0
		c0.4,0,37.5-8.7,75.8-13.8c51.8-6.9,80.7-4.3,86.1,7.8c12.3,27.8,0.6,98.9,0,101.9C502.4,517.7,502,518.1,501.5,518.1z
		 M242.9,515.9h257.7c1.4-8.6,11.2-74.1,0-99.7c-4.9-11-33.8-13.2-83.8-6.5c-38,5.1-75,13.6-75.6,13.8
		c-27.8,6.7-100.5,27.1-103,41.1C235.5,480.4,241.7,510.4,242.9,515.9z"/>
	<path class="st0" d="M515.6,303.8l18.6,42.8c0,0,52.6,9.6,56.3,7.6c3.7-2,9.3-9.2,12.8-11.4c3.5-2.3,18-0.3,20.5,1.5
		c2.5,1.8,8.3,8.9,7.7,11.2c-0.6,2.2-4.2-0.2-4.2-0.2s5.3,3.6,4.2,6.4c-1.1,2.8-12.3-4.6-14.3-4.6c-2.1,0-7.7,15.5-13.9,20.9
		s-75.4,15.5-81.8,13.9c-6.4-1.5-42.3-53.2-42.3-53.2l7.2-32.6L515.6,303.8z"/>
	<path class="st1" d="M523.8,393.1c-0.8,0-1.6,0-2.4-0.2c-6.7-1.6-39.2-48.3-42.9-53.6c-0.2-0.3-0.2-0.6-0.2-0.9l7.2-32.6
		c0.1-0.5,0.5-0.8,1-0.9l29-2.2c0.5,0,0.9,0.2,1.1,0.7l18.4,42.3c24.9,4.5,52.5,8.7,55,7.6c2.5-1.7,4.7-3.7,6.7-6
		c1.8-2,3.8-3.8,6-5.4c4-2.6,19.1-0.4,21.8,1.5c2.2,1.6,8.9,9.2,8.1,12.4c-0.1,0.7-0.6,1.3-1.3,1.6c1.2,1.2,1.7,3,1.3,4.7
		c-0.2,0.5-0.6,1-1.2,1.2c-1.9,0.7-5.1-0.8-9.9-3.1c-1.3-0.7-2.8-1.4-4.2-1.9c-1.4,1.9-2.6,4-3.7,6.2c-2.7,5-6,11.2-9.6,14.4
		c-4.1,3.6-30.3,8-41.4,9.8C547.8,390.9,530.6,393.1,523.8,393.1z M480.6,338.4c13.8,19.9,37,51.4,41.3,52.3
		c6.7,1.6,75.3-8.9,80.8-13.7c3.3-2.9,6.5-8.9,9.1-13.7c2.9-5.5,4-7.4,5.5-7.4c1.9,0.4,3.7,1.2,5.3,2.2c2.2,1.1,7.1,3.5,8.1,3.1
		c0.4-1.2-1.9-3.5-3.7-4.8l-0.3-0.3c-0.5-0.4-0.6-1.1-0.2-1.6c0.4-0.5,1-0.6,1.5-0.3l0.2,0.2c0.6,0.5,1.4,0.8,2.2,0.8
		c0.4-1.5-4.5-8.1-7.2-10.1c-2.1-1.5-16.1-3.6-19.3-1.5c-2,1.5-3.9,3.3-5.6,5.1c-2.2,2.4-4.6,4.6-7.3,6.4
		c-3.9,2.2-48.2-5.8-57.1-7.5c-0.4-0.1-0.7-0.3-0.8-0.6L514.9,305l-27.4,2.2L480.6,338.4z"/>
	<path class="st0" d="M299,307.1l-13.4,32.8c0,0-40-22.8-50.7-24.4c-30.3-4.6-41.5,14.7-42,18c-0.5,3.3,29.3-0.2,29.3-0.2
		s-12.6,4.5-11.4,9.9c0.6,3.1,14.7-4.3,17-3.6c2.3,0.8,62.9,47.7,84.3,52.1c21.4,4.5,70.4-102.3,70.4-102.3"/>
	<path class="st1" d="M313.3,393.1c-0.5,0-1,0-1.5-0.2c-16.8-3.6-56.5-32.2-75.6-46c-4.5-3.2-8.3-6-8.9-6.3c-2.2,0.4-4.3,1-6.3,1.9
		c-5.4,2-8.9,3.1-10.5,2.2c-0.5-0.3-0.8-0.7-0.9-1.3c-0.7-3.4,2.6-6.3,5.9-8.3c-9.2,0.9-21.4,1.7-23.3-0.3c-0.4-0.4-0.6-0.9-0.5-1.4
		c0.5-3.1,11.7-23.8,43.2-19c9.9,1.5,43.3,20.1,50,23.9l12.9-31.6c0.2-0.6,0.9-0.9,1.5-0.6c0.6,0.2,0.9,0.9,0.6,1.5l-13.4,32.8
		c-0.1,0.3-0.4,0.5-0.7,0.6c-0.3,0.1-0.6,0.1-0.9,0c-0.4-0.2-40-22.7-50.4-24.3c-29.9-4.5-39.4,14-40.6,16.8
		c2.5,1,16.1,0.2,27.9-1.2c0.6-0.1,1.1,0.3,1.2,0.9c0.1,0.6-0.2,1.1-0.7,1.3c-3,1-11.2,4.8-10.8,8.5c1.2,0.3,6-1.4,8.6-2.2
		c4.3-1.5,6.5-2.2,7.8-1.9c3.3,2,6.4,4.2,9.4,6.5c17.4,12.6,58.3,42.1,74.7,45.6c16.8,3.6,55.7-72.2,69.2-101.7
		c0.2-0.6,0.9-0.8,1.4-0.6c0,0,0,0,0,0c0.6,0.3,0.8,0.9,0.6,1.5C381.5,294.3,335.9,393.1,313.3,393.1z"/>
	<path class="st0" d="M429.6,161.8c2.4-0.9,4.6-2.3,6.5-4.2c2.6-2.7,4.7-5.8,6.1-9.2c7.9-17.6,10.5-37.1,7.6-56.2
		c-1.2-8.2-2.9-19.7-7.8-26.6c-2.3-3.1-5.6-5.3-9.3-6.5c-1-0.3-11.5,0.3-10.5,1.5c-7.9-9.1-19.6-14.2-31.7-13.6
		c-10.1,0.4-22.3,4.8-28.9,12.8c-2.7,3.3-3.7,5.9-8,7.4c-5.7,1.9-11.9,1.6-17.4-0.8c-1.3-0.6-10.1-3.6-10-4.8
		c-0.4,11.9,6.3,22.9,17,28c-6.2,0.4-12.5-0.6-18.3-2.9c5.6,13,19.2,20.8,33.2,19.1c4.5,6.3,10.4,11.7,14.8,18.4
		c4.7,7.1,9.2,14.5,15.3,20.4C398.1,154.1,415.7,167.1,429.6,161.8z"/>
	<path class="st1" d="M422.7,164.2c-13.9,0-28.7-12.5-35.1-18.6c-5.3-5.4-9.9-11.5-13.8-18l-1.6-2.6c-2.4-3.5-5.1-6.9-8-10.1
		c-2.2-2.5-4.5-5.1-6.4-7.8c-14.4,1.4-28-6.6-33.8-19.8c-0.2-0.6,0-1.2,0.6-1.5c0.3-0.1,0.6-0.1,0.8,0c4.4,1.7,9,2.7,13.7,2.9
		c-9-6-14.2-16.2-13.9-27c0-0.6,0.5-1.1,1.1-1.1c0,0,0,0,0,0c0.5,0,0.9,0.3,1.1,0.7c2.5,1.5,5.2,2.7,8,3.6l1.3,0.5
		c5.2,2.3,11.1,2.6,16.6,0.8c2.4-0.9,4.4-2.7,5.7-4.9c0.5-0.7,1-1.4,1.7-2.2c7-8.6,19.9-12.9,29.7-13.3c12-0.4,23.7,4.4,31.9,13.3
		c3.5-0.8,7.1-1.2,10.7-1c3.9,1.2,7.4,3.6,9.9,6.9c5.1,7.1,6.7,18.6,8,27c2.9,19.3,0.2,39-7.7,56.8c-1.5,3.6-3.6,6.9-6.3,9.7
		c-2,1.9-4.3,3.5-6.9,4.5l0,0C427.7,163.8,425.2,164.2,422.7,164.2z M358.2,104.8c0.4,0,0.7,0.2,0.9,0.5c2,2.8,4.5,5.5,6.7,8.2
		c2.9,3.3,5.6,6.8,8.1,10.4l1.7,2.6c3.8,6.4,8.3,12.3,13.4,17.6c7.2,6.9,25.6,22.3,40.2,16.8l0,0c2.3-0.9,4.4-2.2,6.1-3.9
		c2.5-2.6,4.5-5.6,5.9-8.9c7.8-17.4,10.4-36.7,7.5-55.5c-1.2-8.2-2.8-19.4-7.6-26.1c-2.2-2.9-5.2-5.1-8.7-6.2
		c-3.1-0.1-6.1,0.2-9.2,0.8c-0.1,0.2-0.2,0.3-0.3,0.4c-0.4,0.4-1.1,0.4-1.5-0.1c0,0,0,0,0-0.1l0,0c-7.7-8.9-19.1-13.7-30.8-13.2
		c-9.2,0.4-21.5,4.5-28.1,12.4c-0.6,0.7-1.1,1.4-1.6,2.1c-1.6,2.6-4,4.7-6.9,5.7c-6,2-12.4,1.7-18.2-0.8c-0.2,0-0.7-0.3-1.3-0.5
		c-2.4-0.9-4.8-1.9-7.1-3c0.5,10.6,6.8,20.1,16.3,24.7c0.6,0.1,1,0.7,0.9,1.3s-0.7,1-1.3,0.9l0,0c-5.5,0.4-11-0.3-16.2-2
		c6,11.2,18.3,17.5,30.9,16L358.2,104.8z"/>
	<path class="st0" d="M357.2,129.3c0,0-11.6,22.6-8.3,26.6c3.4,4,12.6,0,12.6,0"/>
	<path class="st1" d="M353.8,158.9c-2.2,0.2-4.3-0.7-5.7-2.2c-3.6-4.5,6.1-24,8.1-27.8c0.3-0.5,1-0.8,1.5-0.5c0.5,0.3,0.8,1,0.5,1.5
		l0,0c-5.6,10.8-10.2,23.2-8.4,25.3c2.2,2.8,8.9,0.8,11.3-0.2c0.6-0.2,1.2,0,1.5,0.6c0.2,0.6,0,1.2-0.6,1.5
		C359.4,158.1,356.6,158.7,353.8,158.9z"/>
	<path class="st0" d="M357.1,101.1c-8.1,8.2-3.8,23.2-2.7,33.1c1.6,14,3.6,27.9,5.9,41.8c1.4,8.9,24.4,6.5,28.2,3.4l0.2,35.4
		l48.9-8.3l-7.9-44.2c0,0-15.6,1.8-26.6-15.3s-13.9-56.5-13.9-56.5S365,93.2,357.1,101.1z"/>
	<path class="st1" d="M388.7,216c-0.3,0-0.5-0.1-0.7-0.3c-0.2-0.2-0.4-0.5-0.4-0.8l-0.2-33.5c-5,2-16.2,3-22.7,0.6
		c-2.8-0.7-4.9-2.9-5.5-5.7c-2.2-13.8-4.2-27.9-5.9-41.8c-0.2-1.7-0.5-3.5-0.8-5.4c-1.5-9.6-3.4-21.5,3.8-28.7
		c8.1-8.2,31.8-10.7,32.9-10.8c0.3,0,0.6,0.1,0.8,0.2c0.2,0.2,0.4,0.5,0.4,0.8c0,0.4,3.1,39.3,13.8,55.8
		c10.4,16.2,24.9,14.8,25.5,14.8c0.6-0.1,1.1,0.3,1.2,0.9l7.9,44.3c0,0.3,0,0.6-0.2,0.8c-0.2,0.2-0.4,0.4-0.7,0.4l-49,8.3L388.7,216
		z M388.5,178.4c0.2,0,0.3,0,0.5,0c0.4,0.2,0.7,0.6,0.6,1l0.2,34.1l46.5-7.9l-7.5-42c-3.8,0-16.9-0.7-26.6-15.8
		c-10-15.6-13.4-49.1-14-55.8c-4.8,0.6-23.8,3.4-30.4,10c-6.5,6.7-4.5,17.7-3.1,26.8c0.3,1.9,0.6,3.8,0.8,5.5
		c1.6,13.9,3.6,27.9,5.9,41.7c0.3,1.7,1.7,3,4.1,3.9c7,2.6,19.8,0.8,22.3-1.2C388,178.5,388.2,178.4,388.5,178.4z"/>
	<path class="st0" d="M359.5,165.6c0,0,11.5,5.5,16.1-6.4"/>
	<path class="st1" d="M365.4,168c-2.2,0-4.4-0.5-6.4-1.4c-0.6-0.2-0.9-0.9-0.6-1.4c0.2-0.6,0.9-0.9,1.4-0.6c0,0,0.1,0,0.1,0.1
		c2.9,1.3,6.1,1.4,9.1,0.5c2.7-1.2,4.7-3.5,5.5-6.3c0.2-0.6,0.9-0.8,1.5-0.6c0.5,0.2,0.8,0.8,0.6,1.4c-1.1,3.4-3.5,6.1-6.7,7.5
		C368.5,167.7,367,168,365.4,168z"/>
	<path class="st0" d="M385,135.3c0-3.5,0.9-7,2.8-10c1.1-2.5,2.6-4.8,4.5-6.9c1.8-2.1,4.5-3.2,7.3-3.1c2.4,0.3,4.6,1.7,6,3.7
		c1.3,2,2.2,4.3,2.5,6.7c1.6,10.7-2.5,21.4-10.9,28.1l0.7-0.9"/>
	<path class="st1" d="M397,155.1c-0.6,0-1.1-0.5-1.1-1.1c0-0.3,0.1-0.5,0.2-0.7l0.7-0.9c0.2-0.3,0.5-0.5,0.9-0.4l0,0
		c7.2-6.6,10.6-16.3,9.1-25.9c-0.3-2.2-1-4.4-2.2-6.3c-1.2-1.8-3.1-3-5.2-3.3c-2.4-0.1-4.8,0.9-6.4,2.8c-1.7,2-3.1,4.3-4.2,6.7
		c-1.8,2.8-2.7,6.1-2.8,9.4c0.1,0.6-0.4,1.1-1,1.2c0,0,0,0,0,0c-0.6,0-1.1-0.4-1.2-1c0-3.8,1-7.4,3-10.6c1.1-2.6,2.6-5,4.5-7.2
		c2.1-2.3,5.1-3.6,8.2-3.5c2.7,0.4,5.2,1.9,6.7,4.2c1.4,2.2,2.4,4.6,2.7,7.2c1.7,11.1-2.7,22.2-11.3,29.2
		C397.4,155.1,397.2,155.1,397,155.1z"/>
	
		<ellipse transform="matrix(0.9985 -5.460164e-02 5.460164e-02 0.9985 -5.9035 19.8387)" class="st1" cx="360.1" cy="118" rx="2" ry="5"/>
	<path class="st1" d="M388.5,179.5c8-0.8,15.8-3.2,22.9-7.1c0,0-4.6,21.7-22,24.6L388.5,179.5z"/>
	<path class="st1" d="M389.3,198c-0.3,0-0.5-0.1-0.7-0.2c-0.2-0.2-0.4-0.5-0.4-0.8l-0.8-17.4c0-0.6,0.4-1.1,1-1.2
		c7.8-0.8,15.4-3.1,22.3-6.9c0.4-0.2,0.8-0.2,1.2,0c0.4,0.3,0.5,0.7,0.4,1.1C412.2,173.5,407.4,195.1,389.3,198L389.3,198z
		 M389.7,180.5l0.7,15.1c12.1-2.7,17.5-15.5,19.2-20.9C403.3,177.7,396.6,179.7,389.7,180.5L389.7,180.5z"/>
	<path class="st2" d="M510,422.4c0,0-2.4-163.5-26.9-201c-24.5-37.5-88-46.2-118.5-23.8c-30.5,22.3-23.7,224.8-23.7,224.8H510z"/>
	<path class="st2" d="M385.7,187.9c0,0-36.3,3-57.3,20.4s-42.8,106.4-42.8,106.4l67,15.1L385.7,187.9z"/>
	<path class="st1" d="M342.7,366L342.7,366c-0.6,0-1.1-0.5-1.1-1.1c0.8-48,2.2-128.8,2.8-130.2c0.3-0.6,0.9-0.8,1.5-0.6
		c0.5,0.2,0.8,0.8,0.6,1.3c-0.5,3.4-2,86.1-2.7,129.5C343.8,365.6,343.3,366,342.7,366z"/>
	<path class="st2" d="M457.8,198.1c0,0,30.6,3.5,46.7,37c8.8,18.2,31.3,77,31.3,77l-67.5,7.8L457.8,198.1z"/>
	<path class="st1" d="M517.9,377.4H411.6c-13,0-23.6-10.6-23.6-23.6c0-1,0.1-2,0.2-3.1l11.7-89.4c1.5-11.8,11.5-20.6,23.4-20.5
		h106.3c13,0,23.6,10.6,23.6,23.6c0,1-0.1,2-0.2,3l-11.7,89.5C539.7,368.6,529.7,377.4,517.9,377.4z"/>
	<path class="st1" d="M517.9,378.6H411.6c-13.6,0-24.7-11-24.8-24.6c0-1.1,0.1-2.2,0.2-3.3l11.7-89.5c1.6-12.3,12.1-21.5,24.6-21.5
		h106.3c13.6,0,24.7,11,24.8,24.6c0,1.1-0.1,2.2-0.2,3.3L542.4,357C540.8,369.4,530.3,378.6,517.9,378.6z M423.2,241.9
		c-11.3,0-20.8,8.4-22.3,19.6l-11.7,89.5c-1.6,12.3,7.1,23.6,19.5,25.2c0.9,0.1,1.9,0.2,2.9,0.2h106.3c11.3,0,20.8-8.4,22.3-19.6
		l11.7-89.5c1.7-12.2-6.9-23.5-19.1-25.2c-1.1-0.1-2.2-0.2-3.2-0.2H423.2z"/>
	<path class="st1" d="M449.6,319.9c0,0,12.7,14.9,13.2,20.5c0.5,5.6-25.1,133.8-25.1,133.8l36.3-10.2c0,0,25.1-119.6,22.7-128.7
		c-2.4-9.2-17.4-20.9-17.4-20.9L449.6,319.9z"/>
	<path class="st1" d="M437.7,475.4c-0.3,0-0.5-0.1-0.8-0.3c-0.3-0.3-0.4-0.7-0.3-1c10.3-51.5,25.5-129.5,25.1-133.5
		c-0.4-4-9.5-15.8-13-19.9c-0.4-0.5-0.3-1.2,0.1-1.6c0.1-0.1,0.3-0.2,0.5-0.2l29.8-5.4c0.3-0.1,0.6,0,0.9,0.2
		c0.6,0.5,15.3,12.1,17.9,21.5c2.5,9.4-21.7,124.4-22.7,129.3c-0.1,0.4-0.4,0.7-0.8,0.8l-36.3,10.2
		C437.9,475.4,437.8,475.4,437.7,475.4z M451.7,320.7c3.4,4.1,11.8,14.7,12.3,19.6c0.5,5.4-21.6,116.1-24.8,132.4l33.9-9.4
		c7.1-33.7,24.6-120.3,22.6-127.6c-2.1-7.9-14.3-18.1-16.6-20L451.7,320.7z"/>
	<path class="st1" d="M327.1,459.8h185c8.3,0,15.1,6.8,15.1,15.1v27c0,8.3-6.8,15.1-15.1,15.1h-185c-8.3,0-15.1-6.8-15.1-15.1v-27
		C312,466.5,318.8,459.8,327.1,459.8z"/>
	<path class="st1" d="M512.1,518.1h-185c-8.9,0-16.2-7.3-16.2-16.2v-27c0-9,7.3-16.2,16.2-16.2h185c9,0,16.2,7.3,16.2,16.2v27
		C528.3,510.9,521,518.1,512.1,518.1z M327.1,460.9c-7.7,0-14,6.3-14,14v27c0,7.7,6.3,14,14,14h185c7.7,0,14-6.3,14-14v-27
		c0-7.7-6.3-14-14-14H327.1z"/>
	<path class="st0" d="M311.8,505.2c-0.6,0-1.1-0.5-1.1-1.1v-28.5c0-9.4,7.5-17,16.9-17.2l112.4-1.8L460,354c0-0.2,4.8-23.3-8-29.6
		c-0.5-0.3-0.8-0.9-0.5-1.5c0,0,0,0,0,0c0.3-0.6,0.9-0.8,1.5-0.5c0,0,0,0,0,0c14.4,7.1,9.4,31,9.2,32L442,457.9
		c-0.1,0.5-0.5,0.9-1.1,0.9l-113.3,1.8c-8.2,0.2-14.7,6.8-14.7,15V504C312.9,504.7,312.4,505.1,311.8,505.2z"/>
	<path class="st0" d="M512.5,460.9L512.5,460.9l-37.5-0.3c-0.3,0-0.6-0.2-0.8-0.4c-0.2-0.3-0.3-0.6-0.2-0.9l7.5-37.1
		c0.1-0.6,0.7-1,1.3-0.9c0.6,0.1,1,0.7,0.9,1.3l-7.3,35.7l36.2,0.2c0.6,0,1.1,0.5,1.1,1.1C513.6,460.3,513.1,460.8,512.5,460.9
		L512.5,460.9z"/>
	<path class="st0" d="M496.7,340.1L496.7,340.1c-0.6,0-1.1-0.6-1-1.2c0,0,0,0,0,0c0.5-7-3-13.6-8.9-17.3c-0.5-0.3-0.7-1-0.4-1.5
		c0.3-0.5,1-0.7,1.5-0.4c6.7,4.1,10.6,11.5,10.1,19.4C497.9,339.7,497.4,340.2,496.7,340.1C496.8,340.1,496.7,340.1,496.7,340.1z"/>
	<path class="st3" d="M143.1,362.5h-8.5c-0.6,0-1.1-0.5-1.1-1.1s0.5-1.1,1.1-1.1h8.5c4.2,0.2,7.9-3,8.1-7.3c0.2-4.2-3-7.9-7.3-8.1
		c-0.3,0-0.6,0-0.8,0c-0.6,0-1.1-0.5-1.1-1.1c0-0.6,0.5-1.1,1.1-1.1c5.5-0.3,10.1,4,10.4,9.4c0.3,5.5-4,10.1-9.4,10.4
		C143.8,362.6,143.5,362.6,143.1,362.5z"/>
	<path class="st0" d="M159.2,367.1c0,5.4-18.4,9.8-41.1,9.8s-41.2-4.5-41.2-9.8H159.2z"/>
	<path class="st3" d="M118.1,378c-20.5,0-42.3-3.8-42.3-10.9c0-0.6,0.5-1.1,1.1-1.1h82.3c0.6,0,1.1,0.5,1.1,1.1
		C160.4,374.2,138.6,378,118.1,378z M78.5,368.2c2.7,3.5,17.2,7.6,39.6,7.6s36.9-4,39.6-7.6H78.5z"/>
	<polygon class="st0" points="139.2,367.1 97,367.1 88.9,335.6 147.3,335.6 	"/>
	<path class="st3" d="M139.2,368.2H97c-0.5,0-1-0.3-1.1-0.8l-8.1-31.5c-0.1-0.3,0-0.7,0.2-1c0.2-0.3,0.5-0.4,0.9-0.4h58.3
		c0.3,0,0.7,0.2,0.9,0.4c0.2,0.3,0.3,0.6,0.2,1l-8.1,31.4C140.2,367.8,139.7,368.2,139.2,368.2z M97.9,366h40.5l7.5-29.2H90.4
		L97.9,366z"/>
	<rect x="666.2" y="361.1" class="st0" width="90.1" height="15.8"/>
	<path class="st3" d="M756.3,378h-90.1c-0.6,0-1.1-0.5-1.1-1.1v-15.8c0-0.6,0.5-1.1,1.1-1.1h90.1c0.6,0,1.1,0.5,1.1,1.1v15.8
		C757.4,377.5,756.9,378,756.3,378z M667.3,375.8h87.8v-13.6h-87.8L667.3,375.8z"/>
	<rect x="678.8" y="345.3" class="st0" width="103.3" height="15.8"/>
	<path class="st3" d="M782.1,362.2H678.8c-0.6,0-1.1-0.5-1.1-1.1v-15.8c0-0.6,0.5-1.1,1.1-1.1h103.3c0.6,0,1.1,0.5,1.1,1.1v15.8
		C783.2,361.7,782.7,362.2,782.1,362.2z M679.9,360H781v-13.6H679.9V360z"/>
	<rect x="669.5" y="329.5" class="st0" width="103.3" height="15.8"/>
	<path class="st3" d="M772.9,346.4H669.5c-0.6,0-1.1-0.5-1.1-1.1v-15.8c0-0.6,0.5-1.1,1.1-1.1h103.3c0.6,0,1.1,0.5,1.1,1.1v15.8
		C774,345.9,773.5,346.4,772.9,346.4L772.9,346.4z M670.7,344.2h101.1v-13.6H670.7L670.7,344.2z"/>
	<rect x="721.2" y="361.1" class="st1" width="47.3" height="15.8"/>
	<path class="st1" d="M768.5,378h-47.3c-0.6,0-1.1-0.5-1.1-1.1v-15.8c0-0.6,0.5-1.1,1.1-1.1h47.3c0.6,0,1.1,0.5,1.1,1.1v15.8
		C769.6,377.5,769.1,378,768.5,378z M722.3,375.8h45.1v-13.6h-45.1V375.8z"/>
	<rect x="727.8" y="345.3" class="st1" width="54.3" height="15.8"/>
	<path class="st1" d="M782.1,362.2h-54.3c-0.6,0-1.1-0.5-1.1-1.1v-15.8c0-0.6,0.5-1.1,1.1-1.1h54.3c0.6,0,1.1,0.5,1.1,1.1v15.8
		C783.2,361.7,782.7,362.2,782.1,362.2z M728.9,360H781v-13.6h-52.1V360z"/>
	<rect x="723" y="329.5" class="st1" width="54.3" height="15.8"/>
	<path class="st1" d="M777.2,346.4H723c-0.6,0-1.1-0.5-1.1-1.1v-15.8c0-0.6,0.5-1.1,1.1-1.1h54.3c0.6,0,1.1,0.5,1.1,1.1v15.8
		C778.3,345.9,777.8,346.4,777.2,346.4z M724.1,344.2h52v-13.6h-52V344.2z"/>
</g>
</svg>
