<?xml version="1.0" encoding="utf-8"?>
<!-- Generator: Adobe Illustrator 24.0.1, SVG Export Plug-In . SVG Version: 6.00 Build 0)  -->
<svg version="1.1" id="Layer_1" xmlns="http://www.w3.org/2000/svg" xmlns:xlink="http://www.w3.org/1999/xlink" x="0px" y="0px"
	 viewBox="0 0 703 485" style="enable-background:new 0 0 703 485;" xml:space="preserve">
<style type="text/css">
	.st0{fill:#D1D3D4;}
	.st1{fill:#FFFFFF;}
	.st2{fill:#231F20;}
	.st3{fill:#A7A9AC;}
	.st4{fill:#F58706;}
</style>
<g id="_230_designer_flatline">
	<path class="st0" d="M615.4,430.4h-526c-0.6,0-1-0.5-1-1s0.5-1,1-1h526c0.6,0,1,0.5,1,1S616,430.4,615.4,430.4z"/>
	<rect x="454" y="251.1" class="st1" width="117.4" height="201.6"/>
	<path class="st2" d="M571.4,453.7H454c-0.6,0-1-0.5-1-1V251.1c0-0.6,0.5-1,1-1h117.4c0.6,0,1,0.5,1,1v201.6
		C572.4,453.2,572,453.7,571.4,453.7C571.4,453.7,571.4,453.7,571.4,453.7z M455,451.6h115.4V252.1H455V451.6z"/>
	<rect x="130.5" y="251.1" class="st1" width="117.4" height="201.6"/>
	<path class="st2" d="M247.9,453.7H130.5c-0.6,0-1-0.5-1-1V251.1c0-0.6,0.5-1,1-1h117.4c0.6,0,1,0.5,1,1v201.6
		C248.9,453.2,248.5,453.7,247.9,453.7C247.9,453.7,247.9,453.7,247.9,453.7z M131.5,451.6h115.4V252.1H131.5L131.5,451.6z"/>
	<polygon class="st2" points="475.8,192.6 499.1,239.3 436.2,239.3 	"/>
	<path class="st2" d="M499.1,240.3h-62.8c-0.4,0-0.8-0.2-0.9-0.6c-0.2-0.4-0.1-0.8,0.2-1.1l39.6-46.7c0.2-0.3,0.6-0.4,0.9-0.3
		c0.3,0,0.6,0.2,0.8,0.6l23.2,46.7c0.2,0.3,0.2,0.7,0,1C499.8,240.1,499.5,240.3,499.1,240.3z M438.4,238.3h59l-21.8-43.8
		L438.4,238.3z"/>
	<polygon class="st2" points="297.3,239.3 447,239.3 501.3,159.7 360,159.7 	"/>
	<path class="st2" d="M447,240.3H297.2c-0.6,0-1-0.5-1-1c0-0.2,0.1-0.4,0.2-0.6l62.7-79.6c0.2-0.2,0.5-0.4,0.8-0.4h141.3
		c0.4,0,0.7,0.2,0.9,0.6c0.2,0.3,0.2,0.7,0,1.1l-54.3,79.6C447.6,240.1,447.3,240.3,447,240.3z M299.4,238.3h147.1l52.9-77.5h-139
		L299.4,238.3z"/>
	<polygon class="st1" points="364.5,167.4 319.7,225.4 430.8,225.4 472.8,167.4 	"/>
	<path class="st2" d="M430.8,226.4H319.7c-0.4,0-0.7-0.2-0.9-0.6c-0.2-0.3-0.2-0.7,0-1.1l44.8-58c0.2-0.2,0.5-0.4,0.8-0.4h108.4
		c0.4,0,0.7,0.2,0.9,0.6c0.2,0.3,0.2,0.7,0,1.1l-42,58C431.4,226.2,431.1,226.4,430.8,226.4z M321.8,224.4h108.4l40.7-56H365
		L321.8,224.4z"/>
	<path class="st0" d="M396.3,214.8c-0.4,0-0.8-0.3-1-0.7c-5.4-15.8-12.9-33.2-15.6-33.6l0,0c-3.3,0-24.1,17.2-42.6,34.1
		c-0.4,0.4-1.1,0.4-1.5-0.1c-0.4-0.4-0.4-1.1,0.1-1.5l0,0c6.4-5.8,38.3-34.6,44.2-34.6h0.2c5.2,0.8,14.5,27,17.2,35
		c0.2,0.5-0.1,1.1-0.6,1.3c0,0,0,0,0,0C396.6,214.8,396.4,214.9,396.3,214.8z"/>
	<path class="st0" d="M429.6,217c-0.5,0-0.9-0.3-1-0.8c-3.6-12.8-8.7-26.4-11.1-27.1c-2.4-0.7-13.6,9.4-22.7,19.1
		c-0.4,0.4-1,0.4-1.5,0c-0.4-0.4-0.4-1,0-1.5c4.7-5,20.2-21.1,24.8-19.7s11.2,24,12.5,28.6c0.2,0.5-0.2,1.1-0.7,1.3L429.6,217z"/>
	<path class="st3" d="M462.5,199.1c-2.5,0-4.5-1.2-4.5-2.7s2-2.7,4.5-2.7s4.5,1.2,4.5,2.7S465,199.1,462.5,199.1z M462.5,194.1
		c-2.2,0-4.1,1-4.1,2.2s1.8,2.2,4.1,2.2s4-1,4-2.2C466.5,195.1,464.7,194.2,462.5,194.1L462.5,194.1z"/>
	<path class="st3" d="M480.4,175.9h-9.1c-0.1,0-0.2-0.1-0.2-0.2c0-0.1,0.1-0.3,0.2-0.3h9.1c0.1,0,0.2,0.1,0.2,0.2c0,0,0,0,0,0
		C480.6,175.8,480.5,175.9,480.4,175.9z"/>
	<path class="st1" d="M447,240.3c-0.2,0-0.4-0.1-0.6-0.2c-0.4-0.3-0.5-1-0.2-1.4l29-39.8c0.3-0.5,1-0.6,1.4-0.2c0,0,0,0,0,0
		c0.4,0.3,0.5,1,0.2,1.4l-29,39.9C447.6,240.2,447.3,240.3,447,240.3z"/>
	<path class="st0" d="M396.3,182.2c-2.5,0-4.5-2-4.5-4.5c0-2.5,2-4.5,4.5-4.5c2.5,0,4.5,2,4.5,4.5v0
		C400.8,180.2,398.8,182.2,396.3,182.2z M396.3,175.2c-1.4,0-2.5,1.1-2.5,2.5c0,1.4,1.1,2.5,2.5,2.5s2.5-1.1,2.5-2.5v0
		C398.7,176.4,397.7,175.3,396.3,175.2C396.3,175.2,396.3,175.2,396.3,175.2z"/>
	<rect x="114.9" y="241" class="st1" width="461.5" height="19.6"/>
	<path class="st2" d="M576.4,261.6H114.9c-0.6,0-1-0.5-1-1V241c0-0.6,0.5-1,1-1h461.5c0.6,0,1,0.5,1,1v19.6
		C577.4,261.1,577,261.6,576.4,261.6z M115.9,259.6h459.4V242H115.9L115.9,259.6z"/>
	<path class="st1" d="M288.5,346.9c0.4,1.5-25.4,94.2-25.4,94.2l36.1,5.8l42.7-128.1L288.5,346.9z"/>
	<path class="st2" d="M299.2,447.8H299l-36.1-5.8c-0.3,0-0.6-0.2-0.7-0.4c-0.1-0.3-0.2-0.6-0.1-0.8c10.1-36.1,25.1-90.7,25.4-93.8
		c0-0.4,0.2-0.8,0.6-1l53.3-28.1c0.4-0.2,0.8-0.1,1.1,0.1c0.3,0.3,0.4,0.7,0.3,1.1l-42.7,128.1C300,447.6,299.6,447.9,299.2,447.8z
		 M264.4,440.2l34.1,5.5l41.6-124.8l-50.7,26.7C288.3,353.4,279.9,384.5,264.4,440.2L264.4,440.2z"/>
	<path class="st2" d="M260.9,437l-5.5,17.3l86.4,6.7c-4.1-8.2-11.1-14.5-19.6-17.7c-9-3.1-18.6-6.9-18.6-6.9l-4.4,10.4L260.9,437z"
		/>
	<path class="st2" d="M341.8,462L341.8,462l-86.4-6.7c-0.6,0-1-0.5-0.9-1.1c0-0.1,0-0.2,0-0.2l5.5-17.3c0.2-0.5,0.7-0.8,1.2-0.7
		l37.4,9.6l4.1-9.6c0.2-0.5,0.8-0.8,1.3-0.6c0,0,0,0,0,0c0.1,0,9.8,3.8,18.6,6.9c8.8,3.3,16.1,9.8,20.2,18.2c0.2,0.3,0.2,0.7,0,1
		C342.6,461.9,342.2,462.1,341.8,462z M256.7,453.4l83.3,6.5c-4-7.2-10.5-12.7-18.2-15.6c-7.3-2.6-15.1-5.5-17.8-6.5l-4,9.5
		c-0.2,0.5-0.7,0.7-1.2,0.6l-37.3-9.5L256.7,453.4z"/>
	<path class="st2" d="M200.2,348.1l-6.1,97.7c0,0-20.7,0.7-25.9,4.4c-5.2,3.6-9.4,20.1-9.4,20.1h6.5c0,0,3.8-12.3,7.9-13.7
		c4.1-1.5,27.6-2,27.6-2s11.3,4.4,13.1,11.9c1.4,5.9,1,7.3,1,7.3h7.2c0-3.4-0.5-6.7-1.4-9.9c-1.4-4.1-6.8-9-6.8-9s11.8,0.2,15.8,0.2
		c3.9,0,8.1,7.5,8.1,7.5h7.7c0,0-8.1-13.6-13.3-14.5c-5.2-1-18.6-3.3-18.6-3.3l-3.6-91L200.2,348.1z"/>
	<path class="st2" d="M222.1,474.6h-7.2c-0.3,0-0.6-0.2-0.8-0.4c-0.2-0.3-0.2-0.6-0.1-0.9c0-2.3-0.3-4.6-1-6.7
		c-1.5-6.4-10.9-10.5-12.3-11.1c-6.6,0.1-23.9,0.8-27.1,2c-2.7,1-5.9,8.5-7.3,13.1c-0.1,0.4-0.5,0.7-1,0.7h-6.5c-0.6,0-1-0.5-1-1.1
		c0-0.1,0-0.1,0-0.2c0.2-0.7,4.4-16.9,9.8-20.7c4.8-3.4,21.4-4.3,25.6-4.5l6-96.8c0-0.4,0.2-0.7,0.5-0.8c0.3-0.2,0.7-0.2,1,0
		l9.7,5.6c0.3,0.2,0.5,0.5,0.5,0.8l3.6,90.2c3,0.5,13.4,2.3,17.8,3.1c5.5,1,13.1,13.6,13.9,15c0.2,0.3,0.2,0.7,0,1
		c-0.2,0.3-0.5,0.5-0.9,0.5h-7.7c-0.4,0-0.7-0.2-0.9-0.5c-1.5-2.7-4.7-7-7.2-7c-2.8,0-9.5-0.1-13.2-0.2c2.2,2.1,4,4.7,5.2,7.5
		c1,3.3,1.5,6.8,1.5,10.2C223.1,474.2,222.6,474.6,222.1,474.6z M216,472.6h5.1c-0.1-2.9-0.5-5.8-1.3-8.6c-1.3-3.8-6.5-8.5-6.5-8.5
		c-0.3-0.3-0.4-0.7-0.3-1.1c0.2-0.4,0.6-0.6,1-0.7c0.1,0,11.9,0.2,15.8,0.2s7.5,5.6,8.6,7.5h5.3c-2.7-4.3-8.2-11.9-11.6-12.5
		c-5.1-1-18.4-3.3-18.6-3.3c-0.5-0.1-0.8-0.5-0.9-1l-3.6-90.4l-7.8-4.5l-5.9,96.1c0,0.5-0.5,0.9-1,1c-5.7,0.2-21.3,1.3-25.4,4.1
		c-3.7,2.6-7.2,13.1-8.7,18.3h4.4c0.9-2.9,4.3-12.3,8.2-13.7c3.9-1.4,27-2,27.9-2h0.4c0.5,0.2,11.9,4.6,13.8,12.6
		C215.4,468.2,215.8,470.4,216,472.6L216,472.6z M194.1,445.7L194.1,445.7z"/>
	<path class="st1" d="M318.4,285.8c0,0,81.7,4.4,86.8,16c5.2,11.6-32.7,139.6-32.7,139.6s40,13.8,33.4,16.7c-6.5,2.9-72-2.9-72-2.9
		l31-118.6l-80.8-5.4L318.4,285.8z"/>
	<path class="st2" d="M395.7,459.9c-19.2,0-56.5-3.3-61.7-3.7c-0.3,0-0.6-0.2-0.8-0.4c-0.2-0.3-0.2-0.6-0.1-0.9l30.7-117.3
		l-79.6-5.4c-0.4,0-0.7-0.3-0.9-0.6c-0.2-0.3-0.1-0.7,0.1-1l34.2-45.4c0.2-0.3,0.5-0.5,0.9-0.4c0.2,0,20.7,1.1,41.5,3.6
		c42.7,5.2,45.3,11,46.2,13c5.1,11.4-28.6,126.8-32.3,139.3c10.9,3.8,33.8,12.3,33.9,16.5c0,0.8-0.5,1.6-1.3,1.8
		C403,459.9,399.3,460.2,395.7,459.9z M335.3,454.3c19,1.7,65.2,5.1,70.3,2.9l0,0c-1.3-2.5-18.2-9.5-33.4-14.8
		c-0.5-0.2-0.8-0.7-0.6-1.3c10.5-35.5,36.8-129.6,32.7-138.9c-4.1-9.3-62.4-14.1-85.4-15.4l-32.7,43.5l78.9,5.3
		c0.3,0,0.6,0.2,0.8,0.4c0.2,0.3,0.2,0.6,0.2,0.9L335.3,454.3z"/>
	<path class="st1" d="M290.7,213.1c0,0,42,52.3,59.9,50.9s69.3-66,69.3-66c9.3-11.1,19.7-25.1,13-40.4c-0.7-1.5-1.8-3-3.4-2.9
		c-0.7,0.1-1.3,0.4-1.9,0.8l-5.7,3.5c0.2-1.6-1.8-2.7-3.4-2.3c-1.5,0.6-2.7,1.7-3.5,3.1c-5.9,8.5-9.8,16.5-9.5,26.9l-60,30.7
		L321.8,191"/>
	<path class="st2" d="M349.9,265c-18.6,0-58.3-49.1-60-51.3c-0.3-0.5-0.2-1.1,0.3-1.4c0.4-0.3,1-0.2,1.3,0.1
		c0.4,0.5,40.7,50.5,58.3,50.5h0.7c17.3-1.4,68-65,68.5-65.6c9.6-11.4,19.3-24.8,12.9-39.4c-0.2-0.6-1.1-2.4-2.4-2.3
		c-0.5,0.1-1,0.3-1.4,0.6l-5.8,3.5c-0.5,0.3-1.1,0.1-1.4-0.3c-0.1-0.2-0.2-0.4-0.1-0.6c0-0.3-0.1-0.6-0.4-0.8
		c-0.5-0.4-1.1-0.5-1.7-0.4c-1.3,0.5-2.3,1.5-3,2.7c-5,7.2-9.6,15.3-9.3,26.3c0,0.4-0.2,0.8-0.6,0.9l-60,30.7
		c-0.4,0.2-0.9,0.1-1.2-0.2L321,191.7c-0.4-0.4-0.4-1,0-1.4c0,0,0,0,0,0c0.4-0.4,1-0.4,1.5,0l23.3,25.7l58.8-30
		c-0.2-11.3,4.5-19.6,9.7-26.9c0.9-1.6,2.4-2.8,4.1-3.5c1.3-0.3,2.6,0,3.6,0.8c0.3,0.2,0.5,0.5,0.7,0.8l4.6-2.8
		c0.7-0.5,1.5-0.8,2.3-0.9c1.8-0.1,3.4,1.2,4.4,3.5c7.4,17-6,32.9-13.2,41.5c-2,2.6-51.8,64.9-69.9,66.3L349.9,265z"/>
	<path class="st1" d="M153.4,204.2c0,0-21.6,49-13.6,54.2s56.8,0,56.8,0l-4.2-63.4"/>
	<path class="st2" d="M158.3,261.6c-8.7,0-16.4-0.6-19.1-2.5c-1.4-0.9-5.6-3.7,3.4-30.2c4.4-12.8,9.8-25.1,9.8-25.2
		c0.2-0.5,0.7-0.8,1.3-0.7c0.5,0.2,0.8,0.7,0.7,1.3c0,0.1-0.1,0.1-0.1,0.2c-8.2,18.6-19.3,49.4-14,52.9c6.1,4.1,40.9,1.4,55.2,0
		l-4.1-62.4c0-0.6,0.4-1.1,1-1.1c0.6,0,1.1,0.4,1.1,1l4.2,63.4c0,0.6-0.4,1-0.9,1.1C195.4,259.5,174.8,261.6,158.3,261.6z"/>
	<path class="st1" d="M171,287.2c0,0-10.6,23.5,0.7,38.3C183,340.2,339.4,342,339.4,342l11.2-56.2l-65.4-8.9l-3.8-19.4L171,287.2z"
		/>
	<path class="st2" d="M339.4,343L339.4,343c-0.4,0-39.6-0.5-79.7-2.7c-54.1-3.1-84-7.9-88.8-14.3c-11.5-15.1-1.3-38.3-0.8-39.3
		c0.1-0.3,0.4-0.5,0.7-0.6l110.4-29.7c0.3-0.1,0.6,0,0.8,0.1c0.2,0.1,0.4,0.4,0.4,0.7l3.7,18.7l64.6,8.8c0.3,0,0.5,0.2,0.7,0.4
		c0.2,0.2,0.2,0.5,0.2,0.8l-11.1,56.3C340.3,342.7,339.9,343,339.4,343z M171.7,288c-1.3,3.3-9.2,23.8,0.8,36.8
		c8.6,11.3,111.9,15.5,166,16.2l10.9-54.3l-64.3-8.8c-0.4-0.1-0.8-0.4-0.9-0.8l-3.6-18.4L171.7,288z"/>
	<path class="st1" d="M235.1,89.4c-1.6-1-3-2.2-4.1-3.7c-1.5-2.2-2.6-4.7-3.3-7.3c-5.5-20-5.6-45.7,12.3-59.4
		c10.7-8.2,24.7-10.6,37.5-6.6c8.7,2.8,16,14.7,19.9,22.5c3.2,6.3,5.3,13.1,9.1,19s9.8,11.1,16.8,11.5c-5.6,3.2-12.4,3.6-18.4,1.1
		c2.8,3.8,7.6,5.6,12.2,4.6c-4.1,3.3-9.9,3.1-15.1,2c-5.2-1.1-10.2-2.7-15.5-2c-8.2,0.9-13.5,6.9-19.9,11.3
		C258.4,87.6,244.4,94.8,235.1,89.4z"/>
	<path class="st2" d="M242.8,92.4c-2.9,0.1-5.7-0.6-8.2-2l0,0c-1.7-1-3.3-2.4-4.4-4.1c-1.6-2.3-2.8-4.9-3.4-7.7
		c-2.7-9.8-9.8-43.2,12.6-60.5c10.9-8.4,25.3-10.9,38.5-6.8c9.3,3,16.8,15.6,20.4,22.9c1.2,2.5,2.3,5,3.4,7.5
		c1.6,4,3.5,7.8,5.6,11.5c2,3.2,7.6,10.6,16,11c0.5,0,0.8,0.3,0.9,0.8c0.1,0.4-0.1,0.9-0.5,1.1c-4.5,2.5-9.8,3.4-14.9,2.4
		c2.4,1.5,5.3,2,8,1.3c0.5-0.1,1.1,0.2,1.2,0.7c0.1,0.4,0,0.8-0.4,1.1c-3.7,2.9-9,3.7-15.9,2.3c-1.2-0.2-2.5-0.5-3.7-0.8
		c-3.7-1.1-7.6-1.5-11.5-1.3c-5.8,0.7-10.1,4.1-14.6,7.5c-1.6,1.2-3.1,2.4-4.8,3.6C262.3,86.3,252.1,92.4,242.8,92.4z M265.2,11.4
		c-8.9,0-17.6,2.9-24.7,8.3c-21.4,16.5-14.5,48.8-11.8,58.3c0.6,2.5,1.7,4.9,3.1,7c1,1.4,2.3,2.6,3.8,3.5l0,0
		c9.9,5.7,25.7-4.1,30.3-7.2c1.6-1.1,3.2-2.3,4.7-3.5c4.6-3.6,9.3-7.2,15.7-8c4.1-0.3,8.3,0.2,12.3,1.3c1.2,0.3,2.4,0.6,3.6,0.8
		c3.4,0.8,6.9,0.8,10.3,0c-3.4-0.5-6.4-2.4-8.4-5.1c-0.3-0.4-0.3-0.9,0-1.2c0.3-0.4,0.8-0.5,1.2-0.3c4.6,1.9,9.7,2,14.4,0.3
		c-6-1.9-11-6-14.1-11.4c-2.3-3.8-4.2-7.7-5.8-11.8c-1-2.4-2-5-3.3-7.4c-2.8-5.6-10.4-19-19.3-21.9C273.3,12,269.2,11.4,265.2,11.4
		L265.2,11.4z"/>
	<path class="st1" d="M290.5,74.9c0,0,5.6,17.5,2.7,19.9c-2.9,2.5-9-1.4-9-1.4"/>
	<path class="st2" d="M290.7,96.7c-2.5-0.2-4.9-1-7-2.4c-0.5-0.3-0.7-0.9-0.4-1.4c0.3-0.5,0.9-0.7,1.4-0.4c0,0,0.1,0,0.1,0.1
		c1.4,0.9,5.9,3.1,7.8,1.5c1.4-1.2-0.4-10.7-3-18.8c-0.2-0.5,0.1-1.1,0.7-1.3c0.5-0.2,1.1,0.1,1.3,0.7c1.3,4.3,5.5,18.4,2.4,21
		C293,96.3,291.8,96.7,290.7,96.7z"/>
	<path class="st1" d="M293.9,54.9c4.8,6.8,0,17-2,23.9c-2.8,9.8-5.9,19.4-9.1,29.1c-2,6.1-18.2,1.7-20.4-0.9l-4.4,25.2L224,120.3
		l10.9-30.5c0,0,10.9,3.1,20.7-7.7c9.8-10.9,16.6-38.5,16.6-38.5S289.2,48.2,293.9,54.9z"/>
	<path class="st2" d="M257.9,133.1h-0.3l-33.9-11.7c-0.3-0.1-0.5-0.3-0.6-0.5c-0.1-0.3-0.1-0.5,0-0.8l10.8-30.6
		c0.2-0.5,0.7-0.8,1.2-0.6c0.4,0.1,10.4,2.8,19.7-7.4c9.2-10.2,16.4-37.8,16.4-38.1c0.1-0.3,0.2-0.5,0.5-0.6c0.2-0.1,0.5-0.1,0.8,0
		c0.7,0.2,17.4,4.8,22.2,11.7l0,0c4.3,6.1,1.5,14.3-0.7,21.1c-0.4,1.3-0.8,2.6-1.2,3.7c-2.8,9.7-5.9,19.5-9.2,29.1
		c-0.8,1.9-2.6,3.2-4.7,3.4c-5.5,0.6-11.1-0.4-16-3l-4.1,23.6c0,0.3-0.2,0.6-0.5,0.7C258.2,133,258,133,257.9,133.1z M225.3,119.7
		l31.8,11l4.1-24c0.1-0.6,0.6-0.9,1.2-0.8c0.2,0,0.4,0.2,0.6,0.3c1.5,1.7,10.3,4.5,15.5,3.5c1.8-0.3,2.8-1.1,3.2-2.2
		c3.3-9.5,6.3-19.3,9.1-29c0.3-1.2,0.8-2.5,1.2-3.8c2-6.2,4.7-14,1-19.2s-16.4-9.5-20.1-10.6c-1.4,5.2-7.7,28.1-16.6,37.9
		c-8.6,9.5-17.8,8.8-20.8,8.2L225.3,119.7z"/>
	<path class="st1" d="M284.5,100.4c0,0-8.9,2.5-10.7-6.4"/>
	<path class="st2" d="M281.8,101.8c-1.8,0-3.5-0.4-5-1.3c-2.2-1.4-3.7-3.7-4.1-6.3c-0.1-0.6,0.3-1.1,0.8-1.2
		c0.6-0.1,1.1,0.3,1.2,0.8c0.3,2,1.4,3.8,3.1,5c2,1,4.2,1.2,6.4,0.7c0.6-0.2,1.1,0.2,1.3,0.7c0.2,0.6-0.2,1.1-0.7,1.3
		C283.8,101.7,282.8,101.8,281.8,101.8z"/>
	<path class="st1" d="M270,75.9c0.4-2.5,0.1-5.1-0.8-7.5c-0.5-1.9-1.3-3.7-2.3-5.4c-1.1-1.7-2.8-2.8-4.8-3.1c-1.8,0-3.5,0.7-4.7,2
		c-1.2,1.3-2.1,2.8-2.6,4.5c-2.4,7.4-0.7,15.5,4.4,21.2l-0.4-0.7"/>
	<path class="st2" d="M259.2,88.7c-0.3,0-0.6-0.1-0.8-0.3c-5.4-6.1-7.2-14.6-4.7-22.3c0.5-1.8,1.5-3.5,2.8-4.9
		c1.4-1.5,3.4-2.3,5.5-2.3c2.3,0.3,4.4,1.6,5.6,3.5c1.1,1.8,1.9,3.7,2.4,5.7c1,2.5,1.3,5.3,0.9,8c-0.1,0.6-0.7,0.9-1.3,0.7
		c-0.5-0.1-0.9-0.7-0.7-1.2c0.3-2.3,0.1-4.7-0.8-6.9c-0.5-1.8-1.2-3.6-2.2-5.2c-0.9-1.5-2.4-2.4-4.1-2.7c-1.5,0-2.9,0.6-3.9,1.7
		c-1.1,1.2-1.9,2.6-2.4,4.1c-2.1,6.6-0.9,13.8,3.3,19.3c0.3,0.1,0.5,0.3,0.7,0.5l0.4,0.7c0.2,0.5,0.1,1-0.3,1.3
		C259.6,88.6,259.4,88.7,259.2,88.7z"/>
	
		<ellipse transform="matrix(0.2183 -0.9759 0.9759 0.2183 161.6443 334.6846)" class="st2" cx="289.7" cy="66.4" rx="3.6" ry="1.4"/>
	<path class="st2" d="M262.2,106.9c-4.4-2.9-8.7-6-12.7-9.5c0,0-2,17.7,10.1,21.8L262.2,106.9z"/>
	<path class="st2" d="M259.6,120.2c-0.1,0-0.2,0-0.3,0c-12.7-4.3-10.9-22.1-10.8-22.9c0-0.4,0.3-0.7,0.6-0.8c0.4-0.1,0.7-0.1,1,0.2
		c4,3.4,8.2,6.5,12.6,9.4c0.4,0.2,0.5,0.7,0.4,1.1l-2.7,12.3c-0.1,0.3-0.2,0.5-0.5,0.7C259.9,120.2,259.8,120.2,259.6,120.2z
		 M250.4,99.5c0,4.4,0.6,14.8,8.4,18.3l2.2-10.4C257.4,104.9,253.8,102.3,250.4,99.5z"/>
	<path class="st4" d="M164.7,294.9c0,0,1.8-125.1,20.6-153.9s67.5-35.3,90.7-18.1s12,148.4,12,148.4S214,294.9,164.7,294.9z"/>
	<path class="st4" d="M259.8,115.5c12.4,5,23.9,11.8,34.3,20.2c16.1,13.4,50,70.8,50,70.8l-44.7,27.1L259.1,184L259.8,115.5z"/>
	<path class="st4" d="M204.6,123.3c0,0-23.4,2.6-35.8,28.3c-6.7,13.9-23.9,59-23.9,59l51.6,5.9L204.6,123.3z"/>
	<path class="st2" d="M295.9,230.4c-0.3,0-0.6-0.2-0.8-0.4l-39.9-54.3c-0.3-0.5-0.2-1.1,0.2-1.4c0.5-0.3,1.1-0.2,1.4,0.2l39.9,54.3
		c0.3,0.5,0.2,1.1-0.2,1.4C296.4,230.4,296.1,230.4,295.9,230.4L295.9,230.4z"/>
	<path class="st2" d="M415,169l10-31l3.1,0.9l-6.3,30.5C421.8,169.5,417.4,173.7,415,169z"/>
	<path class="st2" d="M418.1,172.3h-0.7c-1.5-0.3-2.7-1.3-3.3-2.7c-0.1-0.2-0.1-0.5,0-0.8l9.9-31c0.2-0.5,0.7-0.8,1.3-0.7l3.1,0.9
		c0.5,0.1,0.8,0.7,0.7,1.2l-6.3,30.7c0,0.2-0.1,0.4-0.3,0.5C421.3,171.5,419.7,172.2,418.1,172.3z M416,168.9
		c0.3,0.7,0.9,1.1,1.6,1.3c1.2,0,2.3-0.4,3.1-1.2l6-29.3l-1.2-0.3L416,168.9z"/>
	<path class="st4" d="M226.3,98.9c-18.4-4.1-38.8-1.2-53.7,10.2c-6.3,4.6-11,11-13.6,18.4c-2.4,7.5-1,15.8,3.8,22
		c14.1,16.9,45.1,16.9,64.2,11.3c13.1-3.8,51.7-22.1,41.1-40.2C260.5,107.8,240.1,101.9,226.3,98.9z"/>
	<path class="st2" d="M202.9,162.4c-12.2-0.4-24.1-3.8-34.6-10c-0.5-0.3-0.6-0.9-0.4-1.4c0,0,0,0,0,0c0.3-0.5,0.9-0.6,1.4-0.3
		c0.2,0.2,25.5,15.9,49.5,6.8c11.5-4.4,18.4-12.1,25-19.5c7.3-8.2,14.2-15.9,26.1-17c0.6,0,1.1,0.4,1.1,0.9c0,0,0,0,0,0
		c0.1,0.6-0.3,1-0.9,1.1c0,0,0,0,0,0c-11.1,1-17.4,8.2-24.7,16.4c-6.5,7.3-13.9,15.6-25.8,20.1C214.2,161.5,208.6,162.5,202.9,162.4
		z"/>
	<path class="st2" d="M166.5,250.2L166.5,250.2c-0.6,0-1-0.5-1-1.1c0,0,0,0,0,0c1.5-32.4,8.2-78.9,8.2-79.4c0.1-0.6,0.6-0.9,1.2-0.9
		c0.6,0.1,0.9,0.6,0.9,1.1c0,0.5-6.8,47-8.2,79.2C167.5,249.8,167.1,250.2,166.5,250.2z"/>
	<path class="st2" d="M323.3,453h43.4c0,0,4.7-10.5,14.9-12c0,0,39.6,16.7,33.8,20.2s-95.2,3.1-95.2,3.1L323.3,453z"/>
	<path class="st2" d="M329.4,465.3h-9.1c-0.3,0-0.6-0.1-0.8-0.4c-0.2-0.3-0.3-0.6-0.2-0.9l3.1-11.3c0.1-0.5,0.5-0.8,1-0.8h42.8
		c1.2-2.4,6.1-10.7,15.4-12c0.2-0.1,0.4-0.1,0.5,0c8.2,3.4,34.8,15,35,20.1c0,0.8-0.4,1.5-1.1,1.9C411,465,353.1,465.3,329.4,465.3z
		 M321.6,463.3c35.8,0.1,89.3-0.6,93.4-2.9c0-2.5-17.3-11.4-33.4-18.3c-9.3,1.5-13.8,11.3-13.8,11.4c-0.2,0.4-0.5,0.6-0.9,0.6h-42.7
		L321.6,463.3z"/>
	<path class="st2" d="M290.5,352.4c27.7-5.8,46.2-18.8,35.3-36.2s-89-6.1-104.3-19.1s-9.8-81.6-26.6-93.3
		c-16.8-11.8-88.6-23.6-96.7-8.8c-8,14.8,0,122.9,23.4,146.8S263.5,358,290.5,352.4z"/>
	<path class="st2" d="M209.3,359.3h-4.6c-31.1-0.3-70.8-3.4-83.8-16.6c-23.1-23.9-32.2-131.9-23.5-148.1c1.5-2.8,4.9-4.8,10.2-6.1
		c22.2-5.3,73.6,4.3,87.9,14.3c9,6.3,11.8,27.8,14.5,48.7c2.5,19,5,38.7,12.2,44.7c6.8,5.8,27.6,6.6,47.8,7.4
		c24.8,1,50.5,2,56.7,11.9c3.6,5.7,4.3,11.2,2,16.4c-4.1,9.4-17.5,17-38.1,21.3l0,0C276.6,356.3,242.2,359.3,209.3,359.3z
		 M123.1,189.1c-5.1-0.1-10.2,0.4-15.1,1.4c-4.7,1.1-7.6,2.8-8.8,5c-7.9,14.7,0.7,122.5,23.2,145.6c22.9,23.5,140.7,15.8,167.8,10.2
		l0,0c19.6-4.1,32.9-11.4,36.6-20.2c1.9-4.5,1.3-9.4-1.9-14.5c-5.6-9-30.7-10-55-10.9c-21.5-0.9-41.8-1.7-49.1-7.9
		c-7.7-6.6-10.2-25.7-12.9-46c-2.6-20.3-5.4-41.5-13.7-47.3C183.2,196.8,147.7,189.1,123.1,189.1z M290.5,352.4L290.5,352.4z"/>
	<path class="st0" d="M341.8,295.9h-0.2l-65.9-11.5c-0.6-0.1-0.9-0.6-0.8-1.2s0.6-0.9,1.2-0.8l65.9,11.5c0.6,0.1,1,0.5,0.9,1.1
		C342.9,295.6,342.4,296,341.8,295.9z"/>
	<path class="st2" d="M531.9,430.1l-2-0.2c0-0.6,6.4-59.8-14-86.1l1.6-1.2c8.8,11.3,14,29.5,15.2,54.1
		C533.2,407.8,532.9,419,531.9,430.1z"/>
	<path class="st2" d="M524.8,437.7c0-0.7,0-1.4,0.2-2c4.9-31-3.4-45.4-11.2-52.1l1.3-1.6c8.2,7,16.9,22,11.9,54
		c-0.1,0.8-0.2,1.3-0.2,1.5L524.8,437.7z"/>
	<path class="st2" d="M514.2,370.4c-1.7-1-3.5-1.5-5.4-1.6c-3.4-0.5-6.9,0.5-9.6,2.6c-0.7,0.7-1.3,1.8-0.7,2.5
		c0.4,0.3,0.8,0.5,1.3,0.6c2.7,0.8,4.8,2.9,5.6,5.6c-1.4-1-2.6-2.4-4.1-3.4c-1.4-1.1-3.1-1.7-4.9-1.6c-1.9,0.5-3.6,1.6-4.8,3.2
		c-1.3,1.4-2.4,3-3.3,4.8c-0.9,1.8-1.1,3.7-0.7,5.7c1.9-0.5,3.8-0.7,5.7-0.4c1.4,0.1,2.7,0.7,3.7,1.5c0.3,0.2,0.5,0.6,0.7,1
		c0.1,0.8-0.5,1.6-1.3,1.7c-0.8,0.2-1.6,0.2-2.4,0c-1.7-0.3-3.4-0.6-5.1-0.7c-0.6-0.1-1.3,0-1.9,0.1c-1.5,0.8-2.3,2.5-2,4.2
		c0,0.7,0.2,1.4,0.7,1.9c0.8,0.7,2,0.2,3-0.2c1.7-0.7,3.5-1.1,5.4-1.1c0.2,0,0.4,0,0.6,0.1c0.4,0.3,0.5,0.8,0.2,1.3
		c0,0,0,0.1-0.1,0.1c-0.3,0.4-0.8,0.6-1.3,0.8c-1.4,0.4-2.8,0.8-4.3,1c-0.8,0.1-1.8,0.3-2.2,1.1c-0.2,0.3-0.2,0.7-0.2,1.1
		c-0.1,2.8,0.7,5.5,2.3,7.8c0.3,0.4,0.6,0.8,1,1.1c0.6,0.3,1.2,0.5,1.8,0.5c4.9,0.5,9.8-0.2,14.3-2c0.2-0.1,0.4-0.2,0.6-0.4
		c0.3-0.5-0.2-1-0.5-1.4c-1.5-1.9-1.2-4.5-0.7-6.9c0-0.5,0.2-0.9,0.5-1.2c0.6-0.4,1.4-0.3,1.8,0.3c0.4,0.6,0.6,1.2,0.7,1.9
		c0.3,2.4,0.1,4.9-0.6,7.2c2.4-0.5,4.6-1.3,6.8-2.3c1.8-0.7,3.5-1.6,5-2.8c1.5-1.2,2.6-2.8,3-4.7c0.1-0.3,0.1-0.7-0.1-1
		c-0.2-0.2-0.4-0.4-0.6-0.5c-2.1-1.4-3.8-3.4-4.8-5.7c-0.2-0.5-0.3-1.2,0.1-1.4c0.2-0.1,0.4-0.1,0.6,0c2.6,0.4,3.9,3.3,6,4.8
		c0.2,0.1,0.4,0.2,0.6,0.2c0.3,0,0.5-0.1,0.7-0.3c0.9-0.8,1.4-1.8,1.7-3c0.6-2.2,0.5-4.6-0.4-6.8c-0.9-2.2-2.7-3.8-5-4.5
		c-1-0.2-2.1-0.3-3.2-0.1c-0.4,0-2.3,0.7-2.6,0.4c-0.3-0.2,0.8-1.7,1-2.2C518.4,375.9,516.7,372,514.2,370.4z"/>
	<path class="st2" d="M545.1,351.9c-3.3,0-6.3,1.6-8.2,4.2c-1.2,2.1-1.7,4.6-1.4,7.1c0.3,2.4,0.9,4.8,1.8,7.1
		c1.6-2.9,4.5-4.8,7.8-5.1c3.3-0.3-0.6,2.9-1.1,3.6c-1.9,2.2-3.7,4.5-5.5,6.8c-0.5,0.6-0.9,1.3-1,2c0,0.8,0.2,1.6,0.7,2.3
		c1.4,3.1,3.5,5.8,6.1,7.8c0.7,0.6,1.8,0.8,2.7,0.4c0.4-0.3,0.7-0.8,0.9-1.3c1-2.1,2.3-4,3.8-5.6c0.4-0.4,1-0.9,1.4-0.6
		c0.5,0.3,0.4,0.8,0.3,1.2l-0.4,4.6c-0.3,1.6-0.2,3.3,0.3,4.9c1.1,2.9,4.4,4.4,7.4,4.9c0.8,0.2,1.7,0.2,2.5,0
		c1.6-0.6,2.3-2.5,2.6-4.2c0.3-2.2,1.2-4.4,2.7-6.1c0.4,3,1.3,5.8,2.8,8.4c0.7,1.4,1.8,2.6,3,3.6c1.3,0.9,2.8,1.6,4.4,1.8
		c2.7,0.5,5.4,0.6,8.2,0.4c1.9,0,3.8-0.2,5.6-0.7c1.8-0.5,3.4-1.7,4.4-3.3c1.6-2.9,0.4-6.6-1.7-9.2c-2.1-2.6-4.9-4.5-7.1-7
		c2.7,0.7,5.2,2.1,7.4,3.8c0.5,0.6,1.3,0.9,2,0.9c0.4-0.1,0.7-0.3,0.9-0.5c3.2-3.2-0.5-8.7-2.2-11.6c-0.9-2.1-2.5-3.7-4.6-4.7
		c-1.2-0.3-2.5-0.3-3.7,0c-1.8,0.3-11,4.5-7.1-1c2.1-2.4,5.2-3.8,8.5-3.7c1.6,0.1,4,1.4,3.9-1.5c-0.1-1.1-0.5-2.1-1.2-2.9
		c-1.3-1.9-2.6-3.7-4.1-5.5c-0.4-0.5-0.9-0.9-1.5-1.1c-0.5,0-1.1,0.1-1.5,0.4c-3.7,2.3-7.8,3.8-12.1,4.5c-1,0-2.4-0.3-2.2-1.3
		c0.1-0.3,0.3-0.6,0.6-0.8c2.6-2,6.5-1.2,9.1-3c0.8-0.5,1.3-1.3,1.5-2.3c0-1.4-1.1-2.5-2.2-3.3c-2.8-2.4-6.1-4-9.8-4.5
		c-5.4-0.4-10.2,3.1-13.8,7.1c-1.2,1.4-2,4.9-3.9,4.7c-1.2-0.4-2.3-0.9-3.4-1.5C547.5,352.1,546.3,351.9,545.1,351.9z"/>
	<path class="st2" d="M519,323.6c-0.2-2.1-1.2-4-2.7-5.4c-2.7-2.5-6.8-2.6-10.5-2c-2.7,0.6-5.4,1.4-8.1,2.4
		c-2.6,0.8-3.4,1.3-1.1,3.5c1.7,1.5,6.1,6.8,4.1,9.4c-2,2.6-5.5-4-6.8-5.1c-1.7-1.7-4-2.7-6.5-2.8c-2.1,0.4-4.1,1.4-5.6,2.9
		c-1.6,1.4-3.1,2.9-4.5,4.5c-0.2,0.2-0.4,0.5-0.5,0.8c-0.3,1.2,1.3,1.9,2.5,2c3.5,0.6,7.3,2.4,8,5.9c-3.6,0.9-6.9-2.7-10.6-2.3
		c-2.7,0.6-4.9,2.6-5.8,5.2c-1,2.3-1.3,4.8-0.9,7.3c3.1-1.1,6.4-1.3,9.6-0.8c0.4,0,0.8,0.2,1.1,0.5c0.3,0.6,0.1,1.3-0.5,1.6
		c-0.6,0.3-1.2,0.4-1.8,0.3h-5.9c-0.6-0.1-1.2,0.1-1.7,0.4c-0.4,0.4-0.6,1-0.7,1.5c-0.4,2.7-0.4,5.5-0.1,8.2c0,1.7,0.7,3.3,1.9,4.5
		c0.9,0.7,2,1.2,3.1,1.3c3,0.7,6.1,1.1,9.1,1.1c-1.4-1.9-1.7-4.4-0.9-6.6c1.2-2.9,3.3-1.2,3.4,1.4c0,1.2-0.2,2.4-0.3,3.7
		c0,0.2,0,0.5,0.1,0.7c0.1,0.2,0.3,0.3,0.5,0.4c1.6,0.9,3.5,1.1,5.3,0.7c0.5-0.1,1-0.3,1.4-0.6c1-1.1,1.3-2.7,0.9-4.1l-0.8-7.4
		c-0.1-0.3,0-0.7,0.2-1c0.4-0.4,1,0,1.4,0.3c1.5,1.4,2.3,3.3,2.2,5.4c0,1.2-0.5,2.3-0.6,3.4c-0.2,1.2,0.3,2.3,1.2,3.1
		c1,0.5,2.1,0.5,3.1,0.2c1.4-0.2,2.6-0.9,3.6-1.9c0.8-1.3,1.1-2.9,0.7-4.3c-0.4-1.5-0.7-2.9-0.9-4.4c0-3,3.1-7.4,3.6-2
		c0,1.7-0.1,3.5-0.3,5.2c-0.1,0.2-0.1,0.5,0,0.7c0.3,0.4,0.7,0.6,1.2,0.6c2.4,0.2,4.8-0.3,7-1.3c1.5-0.7,2.8-1.8,3.8-3.1
		c0.8-1.1,1.4-2.2,1.9-3.4c2.5-5.3,6.4-9.4,1.8-15c-1.6-1.9-4.5-2.4-6-4.4c-1.7-2.3,0.9-6,1-9C519,324.9,519.1,324.2,519,323.6z"/>
	<path class="st1" d="M504.3,424h52.1l-4.1,39.1c-0.6,6-5.6,10.5-11.6,10.5h-20.8c-6,0-11-4.5-11.6-10.5L504.3,424z"/>
	<path class="st2" d="M540.8,474.7h-20.9c-6.5,0-12-4.9-12.7-11.4l-4.1-39.1c0-0.3,0.1-0.6,0.3-0.8c0.2-0.2,0.5-0.4,0.8-0.3h52.1
		c0.3,0,0.6,0.1,0.8,0.3c0.2,0.2,0.3,0.5,0.3,0.8l-4.1,39.1C552.7,469.7,547.3,474.6,540.8,474.7z M505.5,425.1l3.9,38
		c0.5,5.4,5.1,9.5,10.6,9.5h20.9c5.4,0,10-4.1,10.6-9.5l3.9-38L505.5,425.1z"/>
	<path class="st2" d="M537.6,424.7c0-0.4-4.1-37.8,14.3-68l1.8,1.1c-18,29.6-14,66.3-14,66.7L537.6,424.7z"/>
	<path class="st1" d="M490.2,353.7c-0.3,0-0.5-0.1-0.7-0.3c-0.4-0.4-0.4-1,0-1.4c0,0,0,0,0,0c10.7-11.2,27.5-18.1,28.2-18.4
		c0.5-0.2,1.1,0,1.3,0.6c0.2,0.5,0,1.1-0.6,1.3l0,0c-0.2,0-17.1,7-27.5,17.9C490.8,353.5,490.5,353.7,490.2,353.7z"/>
	<path class="st1" d="M497.4,405.7c-0.6,0-1-0.5-1-1c0-0.2,0-0.3,0.1-0.5c3.9-7.3,8.8-14,14.6-19.8c0.4-0.4,1-0.4,1.4,0c0,0,0,0,0,0
		c0.4,0.4,0.4,1,0,1.4c-5.6,5.7-10.4,12.2-14.2,19.3C498.2,405.5,497.8,405.8,497.4,405.7z"/>
	<path class="st1" d="M584.4,391.3c-0.3,0-0.7-0.2-0.9-0.4c-0.5-0.8-12.3-18.4-26.2-28.8c-0.5-0.3-0.5-1-0.2-1.4
		c0.3-0.4,1-0.5,1.4-0.2c13.9,10.5,25.4,27.4,26.7,29.3c0.3,0.5,0.2,1.1-0.3,1.4C584.8,391.2,584.6,391.3,584.4,391.3z"/>
	<rect x="454.8" y="36.1" class="st1" width="124.1" height="87.1"/>
	<path class="st0" d="M578.9,124.3H454.8c-0.6,0-1-0.5-1-1V36.1c0-0.6,0.5-1,1-1h124.1c0.6,0,1,0.5,1,1v87.1
		C580,123.8,579.5,124.3,578.9,124.3z M455.9,122.2h122.1V37.1H455.9V122.2z"/>
	<path class="st2" d="M534.9,206c-0.5,0-0.9-0.4-1-0.9l-5-32.6l-8.8,3.9c-0.5,0.2-1.1,0-1.3-0.5c0,0,0,0,0,0c-0.2-0.5,0-1.1,0.5-1.3
		c0,0,0,0,0,0l10-4.3c0.3-0.1,0.6-0.1,0.9,0c0.3,0.2,0.5,0.4,0.5,0.7l5.2,33.8c0.1,0.5-0.3,1.1-0.8,1.2c0,0,0,0,0,0L534.9,206z"/>
	<polygon class="st1" points="552.3,241 526.7,241 525.3,185.9 553.7,185.9 	"/>
	<path class="st2" d="M552.3,242h-25.6c-0.5,0-1-0.4-1-1l-1.5-55.1c0-0.3,0.1-0.5,0.3-0.7c0.2-0.2,0.5-0.3,0.7-0.3h28.4
		c0.6,0,1,0.5,1,1.1l-1.4,55.2C553.1,241.6,552.8,242,552.3,242z M527.7,240h23.6l1.3-53.1h-26.3L527.7,240z"/>
	<rect x="522.7" y="180.3" class="st1" width="33.6" height="5.6"/>
	<path class="st2" d="M556.3,186.9h-33.6c-0.6,0-1-0.5-1-1v-5.6c0-0.6,0.5-1,1-1h33.6c0.6,0,1,0.5,1,1v5.6
		C557.3,186.5,556.8,186.9,556.3,186.9z M523.7,184.9h31.5v-3.5h-31.5V184.9z"/>
	<path class="st0" d="M540,222.4c-6.8,0.6-12.7-4.4-13.3-11.2c-0.6-6.8,4.4-12.7,11.2-13.3c6.8-0.6,12.7,4.4,13.3,11.2
		c0,0.3,0,0.7,0,1C551.5,216.6,546.5,222.1,540,222.4z M540,200c-5.6-0.6-10.6,3.5-11.2,9.1c-0.6,5.6,3.5,10.6,9.1,11.2
		c5.6,0.6,10.6-3.5,11.2-9.1c0-0.3,0.1-0.7,0.1-1C549.5,204.9,545.4,200.3,540,200z"/>
	<path class="st0" d="M491.3,106c-2.5,0-5-0.4-7.4-1.3c-3.1-1-6.1-2.2-8.9-3.8l0,0c-0.7-0.4-1.4-0.8-2-1.3c-3.5-2.2-5.8-5.8-6.6-9.8
		c-0.3-1.5,0-3,0.7-4.3c1.1-1.6,2.7-2.7,4.5-3.4c1.2-0.5,2.3-1.2,3.3-2c2-2.2,1.2-5.4,0.4-8.8c-0.2-0.9-0.4-1.7-0.6-2.5
		c-1-5.3,0.4-10.8,3.9-14.9c3.8-4.3,9.5-6.5,15.2-5.9c7.9,0.9,14.2,4.7,17.2,10.5c2.7,5.5,2.3,11.9-0.8,17.1
		c-1.1,1.6-1.7,3.4-1.8,5.3c0.4,1.7,1.3,3.2,2.6,4.4c1.5,1.5,2.5,3.3,3,5.3c0.5,3.4-1.7,6.6-6.7,9.8
		C502.5,103.8,497,105.7,491.3,106z M476,99.1c2.7,1.5,5.6,2.7,8.6,3.7c8.6,2.9,15.4-0.3,21.4-4.1c4.3-2.8,6.1-5.3,5.8-7.8
		c-0.5-1.6-1.3-3.1-2.5-4.3c-1.5-1.5-2.6-3.4-3-5.5c0-2.3,0.7-4.5,1.9-6.4c2.9-4.6,3.2-10.4,0.9-15.3c-2.7-5.1-8.3-8.5-15.6-9.4
		c-5.1-0.5-10.1,1.4-13.4,5.2c-3.1,3.6-4.3,8.5-3.4,13.1c0.2,0.8,0.4,1.6,0.6,2.4c0.9,3.6,1.9,7.6-0.9,10.6
		c-1.1,1.1-2.4,1.9-3.9,2.5c-1.4,0.5-2.7,1.4-3.6,2.6c-0.5,0.9-0.6,2-0.4,3c0.7,3.5,2.8,6.5,5.7,8.4c0.6,0.4,1.2,0.8,1.8,1.2V99.1z"
		/>
	<path class="st0" d="M546.9,105.4c-5.2-0.1-10.4-1.1-15.3-3.2l-1-0.4c-4.3-2.5-9.7-2.3-13.9,0.5c-2.2,1.2-4.6,2-7.1,2.4
		c-5.6,0.5-11.1-1.9-14.6-6.3l0,0c-3-3.3-4.9-7.4-5.6-11.8c-0.9-5.4,1.9-10.8,6.8-13.2c4.7-2,9.8-0.6,14.7,0.8
		c3.5,1.3,7.2,1.8,11,1.7c2.9-0.5,5.6-1.4,8.2-2.8c1.7-0.8,3.4-1.6,5.2-2.2c8.2-2.7,24,0,30.2,6.8c3.4,3.6,4.7,8.7,3.4,13.4
		c-1.9,6.2-6.7,11.1-12.9,13C553,105.1,550,105.5,546.9,105.4z M524.3,98.1h0.5c2.3,0.2,4.6,0.9,6.6,1.9l1,0.4
		c7.1,3.2,15.2,3.9,22.8,1.8c5.5-1.7,9.9-6.1,11.6-11.6c1.1-4.1,0-8.5-2.9-11.6c-5.6-6.1-20.5-8.8-28-6.3c-1.7,0.6-3.3,1.3-4.9,2
		c-2.7,1.5-5.7,2.5-8.7,3.1c-4,0.2-8-0.4-11.8-1.8c-4.7-1.3-9.2-2.6-13.3-0.8c-4.1,2.1-6.3,6.6-5.6,11.1c0.7,4,2.5,7.8,5.2,10.8
		c2.2,2.4,6.7,6.4,12.8,5.7c2.3-0.4,4.5-1.2,6.5-2.2C518.6,99.1,521.4,98.3,524.3,98.1z"/>
	<path class="st0" d="M544,90.1c-2.8,0.2-5.4-1-7.3-3c-1-1-2.1-1.8-3.4-2.5c-1.5-0.7-3.1-1.1-4.8-1.3c-3-0.1-5.8-1.4-7.7-3.7
		c-2.2-2.8-3-6.4-2.3-9.9c0.9-4.5,3.6-8.5,7.6-10.9c10.8-6.3,30.8,0.3,37.3,9.6c2.3,3.3,4.9,9.9-3.3,16.5c-4.3,3.2-9.5,5-14.9,5.1
		l0,0L544,90.1z M536.7,58.3c-3.3-0.1-6.5,0.7-9.4,2.2c-3.4,2.1-5.8,5.5-6.6,9.5c-0.6,2.9,0.1,5.9,1.9,8.2c1.6,1.8,3.9,2.9,6.4,2.9
		c3.5,0.2,6.9,1.8,9.3,4.4c1.7,2,4.4,3,7,2.4l0,0c4.9-0.1,9.7-1.8,13.7-4.6c5.2-4.2,6.1-9,2.9-13.8
		C557.5,63.3,546.2,58.3,536.7,58.3z"/>
	<path class="st2" d="M232,82.7c0,0,6.6-5.4,0-12.3h-10.7c0,0,2.3,8.9,0,12.3H232z"/>
	<path class="st2" d="M232,83.7h-10.7c-0.4,0-0.7-0.2-0.9-0.6c-0.2-0.3-0.2-0.7,0-1.1c1.7-2.4,0.4-9-0.2-11.4
		c-0.1-0.3,0-0.6,0.2-0.9c0.2-0.2,0.5-0.4,0.8-0.4h10.7c0.3,0,0.5,0.1,0.7,0.3c2.1,1.9,3.3,4.6,3.2,7.4c-0.3,2.5-1.4,4.7-3.3,6.3
		C232.4,83.6,232.2,83.7,232,83.7z M223,81.6h8.6c1.3-1.2,2.1-2.9,2.2-4.7c0-2.1-0.8-4.1-2.4-5.5h-8.9
		C223.4,74.8,223.6,78.3,223,81.6L223,81.6z"/>
	<path class="st1" d="M226.2,78.6c0.3-2.4-0.5-4.8-2.3-6.5c-0.8-1-1.7-1.9-2.7-2.7c-1.9-1.2-4.1-2.1-6.3-2.5
		c-5-1.2-10.8,0.3-15.8,0.4c-5.4,0.1-10.9-0.9-15.9-2.9c-1.7-0.6-3.3-1.6-4.5-3c-1.3,7.4-1.1,15.6,3.2,21.8
		c3.6,4.7,8.6,8.2,14.3,9.9c7.7,3.1,16.5,1.8,23-3.3c2.9-2.2,5.2-5.2,6.5-8.6C225.9,80.4,226.1,79.5,226.2,78.6z"/>
	<path class="st2" d="M205,95.7c-3.2,0-6.3-0.6-9.3-1.7c-5.9-1.8-11-5.4-14.8-10.2c-3.8-5.6-4.9-13.2-3.3-22.5
		c0.1-0.4,0.4-0.7,0.8-0.8c0.4-0.1,0.8,0,1,0.4c1.1,1.2,2.5,2.1,4.1,2.7c5,1.9,10.3,2.8,15.6,2.6c1.7,0,3.4-0.2,5.3-0.4
		c3.6-0.6,7.3-0.6,10.9,0c2.4,0.4,4.7,1.3,6.7,2.7c1,0.9,2,1.8,2.8,2.9c2,1.9,2.9,4.6,2.5,7.3l0,0c-0.2,1-0.4,1.9-0.8,2.8
		c-1.4,3.6-3.8,6.7-6.8,9C215.5,93.8,210.3,95.7,205,95.7z M179.3,63.5c-1.1,8,0,14.3,3.3,19.2c3.5,4.5,8.3,7.9,13.8,9.5
		c7.4,3,15.8,1.8,22-3.2c2.8-2.1,4.9-4.9,6.1-8.2c0.3-0.8,0.5-1.6,0.7-2.4c0.3-2.1-0.5-4.2-2-5.7c-0.8-0.9-1.6-1.7-2.5-2.4
		c-1.8-1.2-3.8-1.9-5.9-2.3c-3.4-0.6-6.8-0.6-10.2,0c-1.8,0.2-3.7,0.4-5.4,0.4c-5.6,0.1-11.2-0.9-16.4-3
		C181.5,64.9,180.4,64.2,179.3,63.5z M226.2,78.6L226.2,78.6z"/>
	<rect x="352.4" y="25.3" class="st1" width="86.8" height="57.3"/>
	<path class="st0" d="M439.3,83.7h-86.8c-0.6,0-1-0.5-1-1V25.3c0-0.6,0.5-1,1-1h86.8c0.6,0,1,0.5,1,1v57.4
		C440.3,83.2,439.8,83.7,439.3,83.7z M353.4,81.6h84.9V26.3h-84.9L353.4,81.6z"/>
	<rect x="352.4" y="82.7" class="st1" width="86.8" height="11.3"/>
	<path class="st0" d="M439.3,95h-86.8c-0.6,0-1-0.5-1-1V82.7c0-0.6,0.5-1,1-1h86.8c0.6,0,1,0.5,1,1V94C440.3,94.6,439.8,95,439.3,95
		z M353.4,93h84.9v-9.3h-84.9L353.4,93z"/>
	<path class="st0" d="M362.4,69.3c-0.6,0-1-0.4-1-1c0-0.3,0.1-0.5,0.2-0.7c1-1.2,24.5-30.1,46.5-28.4c8.8,0.7,14.7,5.3,16,12.3
		c1.2,6.2-1.9,12.3-7.6,15c-6.1,2.8-11.8,2.8-15.8-0.1c-3.5-2.8-5.1-7.3-4.2-11.7c0.2-3.8,2.7-7.1,6.4-8.2c3.8-1,7.8,0.1,10.5,3
		c1.2,1.4,1.5,3.4,0.7,5c-1.6,3-3.4,4.6-5.5,4.7c-3.3,0-5.8-3.8-5.9-3.9c-0.3-0.5-0.1-1.1,0.3-1.4c0,0,0,0,0,0
		c0.5-0.3,1.1-0.1,1.4,0.3c0,0,0,0,0,0c0.5,0.8,2.2,3.1,4.1,3s2.9-2,3.7-3.6c0.5-0.9,0.3-2-0.4-2.8c-2.2-2.2-5.3-3.1-8.3-2.3
		c-2.9,0.9-4.8,3.5-4.9,6.5c-0.8,3.6,0.5,7.4,3.4,9.8c3.3,2.5,8.3,2.5,13.7,0c4.8-2.4,7.4-7.7,6.3-12.9c-1.1-6-6.4-9.9-14.1-10.6
		c-20.8-1.7-44.4,27.3-44.7,27.6C363,69.2,362.7,69.3,362.4,69.3z"/>
	<path class="st0" d="M396.3,136h-33.4c-0.6,0-1-0.5-1-1v-26.6c0-0.6,0.5-1,1-1h33.4c0.6,0,1,0.5,1,1v26.6
		C397.3,135.5,396.8,136,396.3,136z M363.8,133.9h31.4v-24.5h-31.4V133.9z"/>
	<path class="st0" d="M379.6,113.2c-0.6,0-1-0.5-1-1v-6.4c0-0.6,0.5-1,1-1c0.6,0,1,0.5,1,1v6.3C380.6,112.7,380.2,113.2,379.6,113.2
		C379.6,113.2,379.6,113.2,379.6,113.2z"/>
</g>
</svg>
