<?xml version="1.0" encoding="utf-8"?>
<!-- Generator: Adobe Illustrator 24.0.1, SVG Export Plug-In . SVG Version: 6.00 Build 0)  -->
<svg version="1.1" id="Capa_1" xmlns="http://www.w3.org/2000/svg" xmlns:xlink="http://www.w3.org/1999/xlink" x="0px" y="0px"
	 viewBox="0 0 512 512" style="enable-background:new 0 0 512 512;" xml:space="preserve">
<style type="text/css">
	.st0{fill:url(#SVGID_1_);}
	.st1{opacity:0.1;fill:#590BB2;enable-background:new    ;}
	.st2{fill:#AFABC6;}
	.st3{fill:#8E8CA8;}
	.st4{fill:#F5F4F9;}
	.st5{fill:#FFD5B8;}
	.st6{fill:#DDD9E4;}
	.st7{fill:#FFBE92;}
	.st8{fill:#B557FF;}
	.st9{fill:#C182F9;}
	.st10{fill:#CECAE0;}
	.st11{fill:#590BB2;}
	.st12{fill:#F4A422;}
	.st13{fill:#FF8736;}
	.st14{fill:#FFE783;}
	.st15{fill:#FFF4C5;}
</style>
<linearGradient id="SVGID_1_" gradientUnits="userSpaceOnUse" x1="206.867" y1="257.9973" x2="802.41" y2="257.9973" gradientTransform="matrix(1 0 0 -1 0 514)">
	<stop  offset="7.011211e-04" style="stop-color:#FFF0D5"/>
	<stop  offset="0.5112" style="stop-color:#FFDFFF"/>
	<stop  offset="1" style="stop-color:#D9CEFF"/>
</linearGradient>
<path class="st0" d="M382.6,174c-0.2,0-0.4,0-0.6,0c-32-0.1-62.4-13.8-83.4-38c-31.4-36-77.6-58.6-129.1-58.4
	C76,78.1-1.2,156.6,0,250.1c1.2,93,77,168,170.2,168c26.3,0,51.3-6,73.5-16.7c19.2-9.2,42.1-6.8,59,6.2
	c21.9,16.7,49.2,26.7,78.8,26.8c71.4,0.1,130-58,130.4-129.4C512.4,232.9,454.6,174.4,382.6,174L382.6,174z"/>
<path class="st1" d="M455.5,145.6c0-44-35.6-79.6-79.6-79.6c-33.5,0-62.2,20.7-73.9,50.1H62.4c-9.4,0-16.9,7.6-16.9,16.9v220.8
	c0,9.4,7.6,16.9,16.9,16.9h308.4c9.4,0,16.9-7.6,16.9-16.9V224.4C426.1,218.6,455.5,185.5,455.5,145.6z"/>
<path class="st2" d="M267.5,457H165.8l13.2-52.5l7.1-28.1h61l7.1,28.1L267.5,457z"/>
<path class="st3" d="M254.2,404.5h-75.1l7.1-28.1h61L254.2,404.5z"/>
<path class="st4" d="M370.9,391.8H62.4c-9.4,0-16.9-7.6-16.9-16.9V154.1c0-9.4,7.6-16.9,16.9-16.9h308.4c9.4,0,16.9,7.6,16.9,16.9
	v220.8C387.8,384.3,380.2,391.8,370.9,391.8z"/>
<path class="st5" d="M370.9,137.1H260v254.7h110.9c9.4,0,16.9-7.6,16.9-16.9V154.1C387.8,144.7,380.2,137.1,370.9,137.1L370.9,137.1
	z"/>
<path class="st6" d="M165.7,333.5h-30c-2.8,0-5.1-2.3-5.1-5.1s2.3-5.1,5.1-5.1h30c2.8,0,5.1,2.3,5.1,5.1S168.5,333.5,165.7,333.5z"
	/>
<path class="st7" d="M203.6,333.5H191c-2.8,0-5.1-2.3-5.1-5.1s2.3-5.1,5.1-5.1h12.6c2.8,0,5.1,2.3,5.1,5.1S206.4,333.5,203.6,333.5z
	"/>
<path class="st6" d="M203.6,353.8h-67.9c-2.8,0-5.1-2.3-5.1-5.1s2.3-5.1,5.1-5.1h67.9c2.8,0,5.1,2.3,5.1,5.1
	S206.4,353.8,203.6,353.8z"/>
<path class="st8" d="M89.4,349c-1.3,0-2.6-0.5-3.5-1.5l-7-7c-2-2-2-5.1,0-7.1c2-2,5.1-2,7.1,0l3.4,3.4l12.3-12.3c2-2,5.1-2,7.1,0
	c2,2,2,5.1,0,7.1l-15.8,15.8C92,348.5,90.7,349,89.4,349z"/>
<path class="st9" d="M387.8,180.3v-26.2c0-9.4-7.6-16.9-16.9-16.9H62.4c-9.4,0-16.9,7.6-16.9,16.9v26.2H387.8z"/>
<path class="st10" d="M45.5,346.7v28.2c0,9.4,7.6,16.9,16.9,16.9h308.4c9.4,0,16.9-7.6,16.9-16.9v-28.2H45.5z"/>
<g>
	<path class="st11" d="M79.6,163.8c-2.8,0-5-2.2-5-5v-0.1c0-2.8,2.2-5,5-5s5,2.2,5,5v0.1C84.6,161.5,82.4,163.8,79.6,163.8z"/>
	<path class="st11" d="M96.9,163.8c-2.8,0-5-2.2-5-5v-0.1c0-2.8,2.2-5,5-5s5,2.2,5,5v0.1C101.9,161.5,99.7,163.8,96.9,163.8z"/>
	<path class="st11" d="M114.3,163.8c-2.8,0-5-2.2-5-5v-0.1c0-2.8,2.2-5,5-5s5,2.2,5,5v0.1C119.3,161.5,117,163.8,114.3,163.8z"/>
</g>
<path class="st12" d="M413.2,218.4v135.2c0,8-8.9,12.8-15.5,8.3l-16.3-10.8c-3.4-2.2-7.7-2.2-11,0L354.1,362
	c-6.6,4.4-15.5-0.4-15.5-8.3V218.4L413.2,218.4z"/>
<path class="st13" d="M413.2,218.4v32.9c-11.4,5.1-24.1,7.9-37.3,7.9c-13.3,0-25.9-2.8-37.3-7.9v-32.9L413.2,218.4z"/>
<circle class="st14" cx="375.9" cy="166.6" r="79.6"/>
<circle class="st15" cx="375.9" cy="166.6" r="58.6"/>
<path class="st12" d="M367.5,186.7h-5.3c-6.5,0-11.8-5.3-11.8-11.8v-16.5c0-6.5,5.3-11.8,11.8-11.8h5.3c6.5,0,11.8,5.3,11.8,11.8
	v16.5C379.3,181.4,374,186.7,367.5,186.7z M362.2,156.6c-1,0-1.8,0.8-1.8,1.8v16.5c0,1,0.8,1.8,1.8,1.8h5.3c1,0,1.8-0.8,1.8-1.8
	v-16.5c0-1-0.8-1.8-1.8-1.8H362.2z"/>
<path class="st12" d="M396.4,186.7c-2.8,0-5-2.2-5-5v-25.1h-0.4c-2.8,0-5-2.2-5-5s2.2-5,5-5h5.4c2.8,0,5,2.2,5,5v30.1
	C401.4,184.4,399.1,186.7,396.4,186.7z"/>
<path class="st11" d="M375.9,318c2.8,0,5-2.2,5-5v-61.9c44.3-2.6,79.6-39.5,79.6-84.5c0-46.7-38-84.6-84.6-84.6
	c-34.4,0-64,20.6-77.2,50.1H62.4c-12.1,0-21.9,9.8-21.9,21.9v26.2c0,2.8,2.2,5,5,5h247.9c5.3,23.3,20.1,42.9,40.2,54.6v101.8H50.5
	V208.4c0-2.8-2.2-5-5-5s-5,2.2-5,5v166.4c0,12.1,9.8,21.9,21.9,21.9h113.4L161.9,452h-13.3c-2.8,0-5,2.2-5,5s2.2,5,5,5h136.1
	c2.8,0,5-2.2,5-5s-2.2-5-5-5h-13.3l-13.9-55.2h113.4c12.1,0,21.9-9.8,21.9-21.9v-10.2l2.1,1.4c4.6,3.1,10.5,3.3,15.4,0.7
	c4.9-2.6,7.9-7.7,7.9-13.2v-89.2c0-2.8-2.2-5-5-5s-5,2.2-5,5v89.2c0,2.7-1.8,4-2.6,4.4c-0.8,0.4-2.9,1.3-5.1-0.2L384.2,347
	c-5-3.3-11.5-3.3-16.6,0l-16.3,10.8c-2.2,1.5-4.3,0.7-5.1,0.2c-0.8-0.4-2.6-1.7-2.6-4.4V244.8c8.5,3.5,17.7,5.7,27.3,6.3V313
	C370.9,315.8,373.1,318,375.9,318L375.9,318z M261.1,452h-88.8l13.9-55.2h61L261.1,452z M348.5,368.6c2.9,0,5.8-0.8,8.3-2.5
	l16.3-10.8c1.7-1.1,3.8-1.1,5.5,0l4.2,2.8v16.8c0,6.6-5.4,11.9-11.9,11.9H62.4c-6.6,0-11.9-5.4-11.9-11.9v-23.2h283.1v2
	c0,5.5,3,10.6,7.9,13.2C343.7,368,346.1,368.6,348.5,368.6z M50.5,175.3V154c0-6.6,5.4-11.9,11.9-11.9h232.5
	c-2.4,7.8-3.6,16-3.6,24.5c0,2.9,0.1,5.8,0.4,8.6H50.5z M301.3,166.6c0-9.5,1.8-18.5,5-26.8c0.4-0.5,0.6-1.2,0.7-1.8
	c11.3-27,37.9-46,68.9-46c41.1,0,74.6,33.5,74.6,74.6s-33.5,74.6-74.6,74.6S301.3,207.8,301.3,166.6z"/>
<path class="st6" d="M165.7,215.7h-30c-2.8,0-5.1-2.3-5.1-5.1s2.3-5.1,5.1-5.1h30c2.8,0,5.1,2.3,5.1,5.1
	C170.8,213.4,168.5,215.7,165.7,215.7z"/>
<path class="st7" d="M203.6,215.7H191c-2.8,0-5.1-2.3-5.1-5.1s2.3-5.1,5.1-5.1h12.6c2.8,0,5.1,2.3,5.1,5.1S206.4,215.7,203.6,215.7z
	"/>
<path class="st6" d="M203.6,236.1h-67.9c-2.8,0-5.1-2.3-5.1-5.1s2.3-5.1,5.1-5.1h67.9c2.8,0,5.1,2.3,5.1,5.1
	S206.4,236.1,203.6,236.1z"/>
<path class="st8" d="M89.4,231.3c-1.3,0-2.6-0.5-3.5-1.5l-7-7c-2-2-2-5.1,0-7.1c2-2,5.1-2,7.1,0l3.4,3.4l12.3-12.3c2-2,5.1-2,7.1,0
	c2,2,2,5.1,0,7.1l-15.8,15.8C92,230.8,90.7,231.3,89.4,231.3z"/>
<path class="st6" d="M165.7,274.6h-30c-2.8,0-5.1-2.3-5.1-5.1s2.3-5.1,5.1-5.1h30c2.8,0,5.1,2.3,5.1,5.1
	C170.8,272.3,168.5,274.6,165.7,274.6z"/>
<path class="st7" d="M203.6,274.6H191c-2.8,0-5.1-2.3-5.1-5.1s2.3-5.1,5.1-5.1h12.6c2.8,0,5.1,2.3,5.1,5.1
	C208.7,272.3,206.4,274.6,203.6,274.6z"/>
<path class="st6" d="M203.6,294.9h-67.9c-2.8,0-5.1-2.3-5.1-5.1s2.3-5.1,5.1-5.1h67.9c2.8,0,5.1,2.3,5.1,5.1
	S206.4,294.9,203.6,294.9z"/>
<path class="st8" d="M89.4,290.2c-1.3,0-2.6-0.5-3.5-1.5l-7-7c-2-2-2-5.1,0-7.1c2-2,5.1-2,7.1,0l3.4,3.4l12.3-12.3c2-2,5.1-2,7.1,0
	c2,2,2,5.1,0,7.1l-15.8,15.8C92,289.6,90.7,290.2,89.4,290.2z"/>
<path class="st11" d="M296.7,275.2c-1.3,0-2.6-0.5-3.5-1.5c-2-2-2-5.1,0-7.1l2.3-2.3l-2.3-2.3c-2-2-2-5.1,0-7.1s5.1-2,7.1,0l5.8,5.8
	c2,2,2,5.1,0,7.1l-5.8,5.8C299.2,274.7,297.9,275.2,296.7,275.2z"/>
<path class="st14" d="M248.5,218.5h23c1.7,0,3,1.3,3,3v86c0,1.7-1.3,3-3,3h-23c-1.7,0-3-1.3-3-3v-86
	C245.5,219.8,246.8,218.5,248.5,218.5L248.5,218.5z"/>
<path class="st12" d="M267.5,96.2c-1.3,0-2.6-0.5-3.5-1.5l-11-11c-0.9-0.9-1.5-2.2-1.5-3.5s0.5-2.6,1.5-3.5l11-11
	c0.9-0.9,2.2-1.5,3.5-1.5s2.6,0.5,3.5,1.5l11,11c2,2,2,5.1,0,7.1l-11,11C270,95.7,268.8,96.2,267.5,96.2z M263.5,80.2l3.9,3.9
	l3.9-3.9l-3.9-3.9L263.5,80.2z"/>
<path class="st12" d="M110.2,462c-1.3,0-2.6-0.5-3.5-1.5l-11-11c-2-2-2-5.1,0-7.1l11-11c0.9-0.9,2.2-1.5,3.5-1.5s2.6,0.5,3.5,1.5
	l11,11c0.9,0.9,1.5,2.2,1.5,3.5s-0.5,2.6-1.5,3.5l-11,11C112.8,461.5,111.6,462,110.2,462L110.2,462z M106.3,446l3.9,3.9l3.9-3.9
	l-3.9-3.9L106.3,446z"/>
<path class="st9" d="M455.5,260.1c-2.8,0-5-2.2-5-5c0-3.3-2.7-6-6-6c-2.8,0-5-2.2-5-5s2.2-5,5-5c3.3,0,6-2.7,6-6c0-2.8,2.2-5,5-5
	s5,2.2,5,5c0,3.3,2.7,6,6,6c2.8,0,5,2.2,5,5s-2.2,5-5,5c-3.3,0-6,2.7-6,6C460.5,257.8,458.3,260.1,455.5,260.1z"/>
<path class="st14" d="M222,82c-2.8,0-5-2.2-5-5c0-3.3-2.7-6-6-6c-2.8,0-5-2.2-5-5s2.2-5,5-5c3.3,0,6-2.7,6-6c0-2.8,2.2-5,5-5
	s5,2.2,5,5c0,3.3,2.7,6,6,6c2.8,0,5,2.2,5,5s-2.2,5-5,5c-3.3,0-6,2.7-6,6C227,79.8,224.8,82,222,82z"/>
</svg>
