<?xml version="1.0" encoding="utf-8"?>
<!-- Generator: Adobe Illustrator 24.0.1, SVG Export Plug-In . SVG Version: 6.00 Build 0)  -->
<svg version="1.1" id="Capa_1" xmlns="http://www.w3.org/2000/svg" xmlns:xlink="http://www.w3.org/1999/xlink" x="0px" y="0px"
	 viewBox="0 0 512 512" style="enable-background:new 0 0 512 512;" xml:space="preserve">
<style type="text/css">
	.st0{fill:url(#SVGID_1_);}
	.st1{opacity:0.1;fill:#590BB2;enable-background:new    ;}
	.st2{fill:#C182F9;}
	.st3{fill:#8E8CA8;}
	.st4{fill:#F5F4F9;}
	.st5{fill:#FFD5B8;}
	.st6{fill:#FFBE92;}
	.st7{fill:#B557FF;}
	.st8{fill:#F4A422;}
	.st9{fill:#FFE783;}
	.st10{fill:#FAA307;}
	.st11{fill:#D6B0FF;}
	.st12{fill:#590BB2;}
</style>
<linearGradient id="SVGID_1_" gradientUnits="userSpaceOnUse" x1="225.816" y1="260.4971" x2="864.887" y2="260.4971" gradientTransform="matrix(1 0 0 -1 0 514)">
	<stop  offset="7.011211e-04" style="stop-color:#FFF0D5"/>
	<stop  offset="0.5112" style="stop-color:#FFDFFF"/>
	<stop  offset="1" style="stop-color:#D9CEFF"/>
</linearGradient>
<path class="st0" d="M505.6,289.4c-11.8-34.6-38.1-60.2-69.9-72.2c-16.4-6.2-27.3-21.9-27.6-39.4c0-0.4,0-0.8,0-1.2
	c-1.5-64.6-55.5-116.3-120.1-115.2c-38.1,0.7-71.8,19.4-92.9,47.9c-18.2,24.6-46.5,40-77.1,39.9c-0.9,0-1.8,0-2.7,0
	C53.5,150.7,0.8,203.8,0,265.7c-0.9,65.9,52.3,119.7,118,119.7c50.9,0,94.3-32.3,110.9-77.5c4.3-11.8,17.2-18.2,29.3-14.8
	c0.2,0,0.3,0.1,0.5,0.1c11.1,3.1,18.5,13.6,17.5,25.1c-1.2,15.4,0.6,31.3,5.8,46.8c20.5,61.1,87.2,94.7,148.5,74.7
	C493.2,419.4,526.9,351.6,505.6,289.4L505.6,289.4z"/>
<path class="st1" d="M406.8,130.7h-28V99.9c0-2.9-0.6-5.8-1.9-8.4l-20.1-43.2c-3.6-7.7-14.6-7.7-18.1,0l-20.1,43.2
	c-1.2,2.6-1.9,5.5-1.9,8.4v30.9H105.2c-9.1,0-16.6,7.4-16.6,16.6v215.9c0,9.1,7.4,16.6,16.6,16.6h301.6c9.1,0,16.6-7.4,16.6-16.6
	V147.3C423.4,138.1,415.9,130.7,406.8,130.7L406.8,130.7z"/>
<path class="st2" d="M305.7,464.5h-99.4l13-51.3l6.9-27.4h59.6l6.9,27.4L305.7,464.5z"/>
<path class="st3" d="M292.7,413.2h-73.5l6.9-27.4h59.6L292.7,413.2z"/>
<path class="st4" d="M406.8,400.8H105.2c-9.1,0-16.6-7.4-16.6-16.6V168.3c0-9.1,7.4-16.6,16.6-16.6h301.6c9.1,0,16.6,7.4,16.6,16.6
	v215.9C423.4,393.4,415.9,400.8,406.8,400.8L406.8,400.8z"/>
<path class="st5" d="M88.6,289v95.2c0,9.1,7.4,16.6,16.6,16.6h301.6c9.1,0,16.6-7.4,16.6-16.6V289H88.6z"/>
<path class="st2" d="M423.4,193.9v-25.6c0-9.1-7.4-16.6-16.6-16.6H105.2c-9.1,0-16.6,7.4-16.6,16.6v25.6H423.4z"/>
<path class="st2" d="M88.6,356.6v27.6c0,9.1,7.4,16.6,16.6,16.6h301.6c9.1,0,16.6-7.4,16.6-16.6v-27.6H88.6z"/>
<path class="st4" d="M194.7,312.7H121c-2.8,0-5-2.2-5-5s2.2-5,5-5h73.7c2.8,0,5,2.2,5,5S197.5,312.7,194.7,312.7z"/>
<path class="st6" d="M137.7,276.7H121c-2.8,0-5-2.2-5-5s2.2-5,5-5h16.7c2.8,0,5,2.2,5,5S140.5,276.7,137.7,276.7z"/>
<path class="st4" d="M194.7,332.6H121c-2.8,0-5-2.2-5-5s2.2-5,5-5h73.7c2.8,0,5,2.2,5,5S197.5,332.6,194.7,332.6z"/>
<path class="st7" d="M134.1,252.9c-1.3,0-2.6-0.5-3.5-1.5l-12-12c-2-2-2-5.1,0-7.1l12-12c2-2,5.1-2,7.1,0c2,2,2,5.1,0,7.1l-8.5,8.5
	l8.5,8.5c2,2,2,5.1,0,7.1C136.7,252.4,135.4,252.9,134.1,252.9L134.1,252.9z"/>
<path class="st7" d="M178.9,252.9c-1.3,0-2.6-0.5-3.5-1.5c-2-2-2-5.1,0-7.1l8.5-8.5l-8.5-8.5c-2-2-2-5.1,0-7.1c2-2,5.1-2,7.1,0
	l12,12c2,2,2,5.1,0,7.1l-12,12C181.4,252.4,180.1,252.9,178.9,252.9L178.9,252.9z"/>
<path class="st7" d="M150.7,252.9c-0.8,0-1.7-0.2-2.5-0.6c-2.4-1.4-3.3-4.4-1.9-6.8l13.6-24.1c1.4-2.4,4.4-3.3,6.8-1.9
	c2.4,1.4,3.3,4.4,1.9,6.8l-13.6,24.1C154.1,252,152.4,252.9,150.7,252.9z"/>
<path class="st8" d="M338.7,69.3l-20.1,43.2c-1.2,2.6-1.9,5.5-1.9,8.4v235.8h62V120.9c0-2.9-0.6-5.8-1.9-8.4l-20.1-43.2
	C353.3,61.6,342.3,61.6,338.7,69.3L338.7,69.3z"/>
<path class="st9" d="M316.8,126.6h31v230h-31V126.6z"/>
<path class="st5" d="M338.7,69.3l-20.1,43.2c-1.2,2.6-1.9,5.5-1.9,8.4v12.7c3.6,1.9,7.7,3,12,3c5,0,9.7-1.5,13.6-4
	c3.3-2.1,7.6-2,10.9,0.1c3.9,2.5,8.5,3.9,13.5,3.9c4.3,0,8.4-1.1,12-3v-12.7c0-2.9-0.6-5.8-1.9-8.4l-20.1-43.2
	C353.3,61.6,342.3,61.6,338.7,69.3L338.7,69.3z"/>
<path class="st10" d="M338.7,69.3l-11,23.6c5.5,4.5,12.4,7.2,20,7.2c7.6,0,14.6-2.7,20.1-7.2l-11-23.6
	C353.3,61.6,342.3,61.6,338.7,69.3L338.7,69.3z"/>
<path class="st2" d="M244,180.3L224,223.4c-1.2,2.6-1.9,5.5-1.9,8.4v124.8h62V231.9c0-2.9-0.6-5.8-1.9-8.4l-20.1-43.2
	C258.6,172.6,247.6,172.6,244,180.3L244,180.3z"/>
<path class="st11" d="M222.1,237.6h31v119h-31V237.6z"/>
<path class="st5" d="M244,180.3L224,223.4c-1.2,2.6-1.9,5.5-1.9,8.4v12.7c3.6,1.9,7.7,3,12,3c5,0,9.7-1.5,13.6-4
	c3.3-2.1,7.6-2,10.9,0.1c3.9,2.5,8.5,3.9,13.5,3.9c4.3,0,8.4-1.1,12-3v-12.7c0-2.9-0.6-5.8-1.9-8.4l-20.1-43.2
	C258.6,172.6,247.6,172.6,244,180.3L244,180.3z"/>
<path class="st3" d="M244,180.3l-11,23.6c5.5,4.5,12.4,7.2,20,7.2c7.6,0,14.6-2.7,20.1-7.2l-11-23.6
	C258.6,172.6,247.6,172.6,244,180.3L244,180.3z"/>
<g>
	<path class="st12" d="M117,172.8v0.1c0,2.8,2.2,5,5,5s5-2.2,5-5v-0.1c0-2.8-2.2-5-5-5S117,170,117,172.8z"/>
	<path class="st12" d="M133.9,172.8v0.1c0,2.8,2.2,5,5,5s5-2.2,5-5v-0.1c0-2.8-2.2-5-5-5S133.9,170,133.9,172.8z"/>
	<path class="st12" d="M150.9,172.8v0.1c0,2.8,2.2,5,5,5s5-2.2,5-5v-0.1c0-2.8-2.2-5-5-5S150.9,170,150.9,172.8z"/>
	<path class="st12" d="M406.8,146.7h-23v-25.9c0-3.6-0.8-7.3-2.3-10.5l-20.1-43.2c-2.5-5.4-7.7-8.7-13.6-8.7
		c-5.9,0-11.1,3.3-13.6,8.7l-20.1,43.2c-1.5,3.3-2.3,6.9-2.3,10.5v68.1h-40.1l-5-10.8c-2.5-5.4-7.7-8.7-13.6-8.7s-11.1,3.3-13.6,8.7
		l-5,10.8H93.6v-20.6c0-6.4,5.2-11.6,11.6-11.6h184c2.8,0,5-2.2,5-5s-2.2-5-5-5h-184c-11.9,0-21.6,9.7-21.6,21.6v215.9
		c0,11.9,9.7,21.6,21.6,21.6H216l-13.6,53.7h-12.9c-2.8,0-5,2.2-5,5s2.2,5,5,5h133.1c2.8,0,5-2.2,5-5s-2.2-5-5-5h-12.9L296,405.8
		h110.8c11.9,0,21.6-9.7,21.6-21.6V168.3C428.4,156.4,418.7,146.7,406.8,146.7L406.8,146.7z M352.8,351.6V138.2
		c4.3,2.3,9.1,3.4,14,3.4c2.4,0,4.7-0.3,7-0.8v210.8H352.8z M321.8,351.6V140.8c2.3,0.5,4.6,0.8,7,0.8c4.9,0,9.7-1.2,14-3.4v213.4
		H321.8z M383.8,198.9h34.6v152.7h-34.6V198.9z M406.8,156.7c6.4,0,11.6,5.2,11.6,11.6v20.6h-34.6v-32.2H406.8z M343.2,71.4
		c1.2-2.7,3.8-2.9,4.5-2.9c0.7,0,3.3,0.2,4.5,2.9l9.2,19.8c-4.1,2.5-8.9,3.9-13.8,3.9c-4.9,0-9.6-1.3-13.8-3.8L343.2,71.4z
		 M323.2,114.6l6.6-14.2c5.5,3.1,11.7,4.7,18,4.7c6.3,0,12.5-1.7,18-4.7l6.6,14.2c0.9,2,1.4,4.2,1.4,6.3v9.5c-2.2,0.8-4.6,1.2-7,1.2
		c-3.8,0-7.6-1.1-10.8-3.1c-5-3.2-11.4-3.2-16.3-0.1c-3.3,2.1-7,3.2-10.9,3.2c-2.4,0-4.8-0.4-7-1.2v-9.5
		C321.8,118.7,322.3,116.5,323.2,114.6z M311.8,198.9v152.7h-22.7V231.9c0-3.6-0.8-7.3-2.3-10.5l-10.4-22.4L311.8,198.9z
		 M258.1,351.6V249.2c4.3,2.3,9.1,3.4,14,3.4c2.4,0,4.7-0.3,7-0.8v99.8L258.1,351.6L258.1,351.6z M228.5,225.6l6.6-14.2
		c5.5,3.1,11.7,4.7,18,4.7c6.3,0,12.5-1.7,18-4.7l6.6,14.2c0.9,2,1.4,4.2,1.4,6.3v9.5c-2.2,0.8-4.6,1.2-7,1.2
		c-3.8,0-7.6-1.1-10.8-3.1c-5-3.2-11.4-3.2-16.3-0.1c-3.3,2.1-7,3.2-10.9,3.2c-2.4,0-4.8-0.4-7-1.2v-9.5
		C227.1,229.7,227.6,227.5,228.5,225.6L228.5,225.6z M248.6,182.4c1.2-2.7,3.8-2.9,4.5-2.9s3.3,0.2,4.5,2.9l9.2,19.8
		c-4.1,2.5-8.9,3.9-13.8,3.9c-4.9,0-9.6-1.3-13.8-3.8L248.6,182.4z M229.8,198.9l-10.4,22.4c-1.5,3.3-2.3,6.9-2.3,10.5v97.2
		c0,2.8,2.2,5,5,5s5-2.2,5-5v-77.3c2.3,0.5,4.6,0.8,7,0.8c4.9,0,9.7-1.2,14-3.4v102.4H93.6V198.9L229.8,198.9z M299.3,459.5h-86.6
		l13.6-53.7h59.4L299.3,459.5z M406.8,395.8H105.2c-6.4,0-11.6-5.2-11.6-11.6v-22.6h324.7v22.6C418.4,390.6,413.2,395.8,406.8,395.8
		z"/>
</g>
<path class="st8" d="M273.1,132.4c-1.3,0-2.6-0.5-3.5-1.5l-11-11c-2-2-2-5.1,0-7.1l11-11c2-2,5.1-2,7.1,0l11,11c2,2,2,5.1,0,7.1
	l-11,11C275.7,131.9,274.4,132.4,273.1,132.4z M269.2,116.4l3.9,3.9l3.9-3.9l-3.9-3.9L269.2,116.4z"/>
<path class="st2" d="M128.1,458.4c-2.8,0-5-2.2-5-5c0-3.3-2.7-6-6-6c-2.8,0-5-2.2-5-5s2.2-5,5-5c3.3,0,6-2.7,6-6c0-2.8,2.2-5,5-5
	c2.8,0,5,2.2,5,5c0,3.3,2.7,6,6,6c2.8,0,5,2.2,5,5s-2.2,5-5,5c-3.3,0-6,2.7-6,6C133.1,456.1,130.9,458.4,128.1,458.4z"/>
<path class="st2" d="M229.6,99.9c-2.8,0-5-2.2-5-5c0-3.3-2.7-6-6-6c-2.8,0-5-2.2-5-5s2.2-5,5-5c3.3,0,6-2.7,6-6c0-2.8,2.2-5,5-5
	s5,2.2,5,5c0,3.3,2.7,6,6,6c2.8,0,5,2.2,5,5s-2.2,5-5,5c-3.3,0-6,2.7-6,6C234.6,97.7,232.4,99.9,229.6,99.9z"/>
<path class="st9" d="M133.3,123.4c-2.8,0-5-2.2-5-5c0-3.3-2.7-6-6-6c-2.8,0-5-2.2-5-5s2.2-5,5-5c3.3,0,6-2.7,6-6c0-2.8,2.2-5,5-5
	s5,2.2,5,5c0,3.3,2.7,6,6,6c2.8,0,5,2.2,5,5s-2.2,5-5,5c-3.3,0-6,2.7-6,6C138.3,121.1,136.1,123.4,133.3,123.4z"/>
</svg>
