<?xml version="1.0" encoding="utf-8"?>
<!-- Generator: Adobe Illustrator 24.0.1, SVG Export Plug-In . SVG Version: 6.00 Build 0)  -->
<svg version="1.1" id="Capa_1" xmlns="http://www.w3.org/2000/svg" xmlns:xlink="http://www.w3.org/1999/xlink" x="0px" y="0px"
	 viewBox="0 0 512 512" style="enable-background:new 0 0 512 512;" xml:space="preserve">
<style type="text/css">
	.st0{fill:url(#SVGID_1_);}
	.st1{opacity:0.1;fill:#590BB2;enable-background:new    ;}
	.st2{fill:#E2CCFF;}
	.st3{fill:#D6B0FF;}
	.st4{fill:#FDD250;}
	.st5{fill:#F5F4F9;}
	.st6{fill:#F4A422;}
	.st7{fill:#C182F9;}
	.st8{fill:#590BB2;}
	.st9{fill:#FFD5B8;}
	.st10{fill:#FFE783;}
</style>
<linearGradient id="SVGID_1_" gradientUnits="userSpaceOnUse" x1="225.816" y1="260.4996" x2="864.887" y2="260.4996" gradientTransform="matrix(1 0 0 -1 0 514)">
	<stop  offset="7.011211e-04" style="stop-color:#FFF0D5"/>
	<stop  offset="0.5112" style="stop-color:#FFDFFF"/>
	<stop  offset="1" style="stop-color:#D9CEFF"/>
</linearGradient>
<path class="st0" d="M505.6,289.4c-11.8-34.6-38.1-60.2-69.9-72.2c-16.4-6.2-27.3-21.9-27.6-39.4c0-0.4,0-0.8,0-1.2
	c-1.5-64.6-55.5-116.3-120.1-115.2c-38.1,0.7-71.8,19.4-92.9,47.9c-18.2,24.6-46.5,40-77.1,39.9c-0.9,0-1.8,0-2.7,0
	C53.5,150.7,0.8,203.8,0,265.7c-0.9,65.9,52.3,119.7,118,119.7c50.9,0,94.3-32.3,110.9-77.5c4.3-11.8,17.2-18.2,29.3-14.8
	c0.2,0,0.3,0.1,0.5,0.1c11.1,3.1,18.5,13.6,17.5,25.1c-1.2,15.4,0.6,31.3,5.8,46.8c20.5,61.1,87.2,94.7,148.5,74.7
	C493.2,419.4,526.9,351.6,505.6,289.4L505.6,289.4z"/>
<path class="st1" d="M452.7,227.6c-0.6-5-4.9-8.7-9.9-8.7h-23.1c-13-70.6-66.5-127.1-135.5-144.5c0.2-1.8,0.4-3.7,0.4-5.6
	c0-25-20.3-45.3-45.3-45.3S194,43.8,194,68.8c0,1.9,0.1,3.7,0.3,5.5c-19,4.8-36.8,12.5-53,22.7c-4.5-1.5-9.3-2.3-14.3-2.3
	c-25,0-45.3,20.3-45.3,45.3c0,4.9,0.8,9.7,2.3,14.1c-18.1,28.4-28.6,62.2-28.6,98.4c0,101.4,82.2,183.7,183.7,183.7
	c32.9,0,63.7-8.6,90.4-23.8l26.4,16.4c7.3,4.5,16.5,4.5,23.8,0l67.9-42.2c2.5-1.6,4.2-4.1,4.6-7c2.7-18.4,4.4-46.5,4.4-78
	C456.5,272.2,455.1,245.9,452.7,227.6L452.7,227.6z"/>
<circle class="st2" cx="239.1" cy="270.4" r="183.7"/>
<g>
	<path class="st3" d="M172.3,172.9c0,25-20.3,45.3-45.3,45.3c-24.1,0-43.8-18.9-45.2-42.6c11-18.2,25.1-34.4,41.6-47.8
		c1.2-0.1,2.4-0.1,3.6-0.1C152.1,127.6,172.3,147.9,172.3,172.9z"/>
	<path class="st3" d="M284.5,101.7c0,25-20.3,45.3-45.3,45.3S194,126.7,194,101.7c0-3.3,0.4-6.5,1-9.6c14.1-3.5,28.9-5.3,44.1-5.3
		c15.3,0,30.2,1.9,44.4,5.4C284.2,95.3,284.5,98.5,284.5,101.7L284.5,101.7z"/>
	<path class="st3" d="M422.8,270.4c0,74.9-44.9,139.4-109.2,167.9L288,422.5c-2.5-1.5-4.2-4.1-4.6-7c-2.7-18.4-4.4-46.5-4.4-78
		c0-29.3,1.5-55.6,3.8-73.9c0.6-5,4.9-8.7,9.9-8.7h129.4C422.6,260,422.8,265.2,422.8,270.4L422.8,270.4z"/>
</g>
<circle class="st4" cx="127.1" cy="157.9" r="45.3"/>
<path class="st5" d="M143.7,149.7c0-9.2-7.4-16.6-16.6-16.6s-16.6,7.4-16.6,16.6c0,4.5,1.8,8.6,4.7,11.6c-2.9,3-4.7,7.1-4.7,11.6
	c0,2.8,2.2,5,5,5s5-2.2,5-5c0-3.6,3-6.6,6.6-6.6c3.6,0,6.6,3,6.6,6.6c0,2.8,2.2,5,5,5s5-2.2,5-5c0-4.5-1.8-8.6-4.7-11.6
	C141.8,158.3,143.7,154.2,143.7,149.7z M127.1,143.1c3.6,0,6.6,3,6.6,6.6s-3,6.6-6.6,6.6s-6.6-3-6.6-6.6S123.4,143.1,127.1,143.1z"
	/>
<circle class="st6" cx="239.3" cy="86.8" r="45.3"/>
<path class="st5" d="M255.9,78.5c0-9.2-7.4-16.6-16.6-16.6s-16.6,7.4-16.6,16.6c0,4.5,1.8,8.6,4.7,11.6c-2.9,3-4.7,7.1-4.7,11.6
	c0,2.8,2.2,5,5,5s5-2.2,5-5c0-3.6,3-6.6,6.6-6.6s6.6,3,6.6,6.6c0,2.8,2.2,5,5,5s5-2.2,5-5c0-4.5-1.8-8.6-4.7-11.6
	C254,87.1,255.9,83,255.9,78.5z M239.3,71.9c3.6,0,6.6,3,6.6,6.6s-3,6.6-6.6,6.6s-6.6-3-6.6-6.6S235.6,71.9,239.3,71.9z"/>
<circle class="st4" cx="171.9" cy="438.2" r="45.3"/>
<path class="st5" d="M188.5,430c0-9.2-7.4-16.6-16.6-16.6c-9.2,0-16.6,7.4-16.6,16.6c0,4.5,1.8,8.6,4.7,11.6
	c-2.9,3-4.7,7.1-4.7,11.6c0,2.8,2.2,5,5,5s5-2.2,5-5c0-3.6,3-6.6,6.6-6.6s6.6,3,6.6,6.6c0,2.8,2.2,5,5,5s5-2.2,5-5
	c0-4.5-1.8-8.6-4.7-11.6C186.7,438.6,188.5,434.5,188.5,430z M171.9,423.4c3.6,0,6.6,3,6.6,6.6s-3,6.6-6.6,6.6s-6.6-3-6.6-6.6
	S168.2,423.4,171.9,423.4z"/>
<path class="st7" d="M447.6,404.5c2.5-1.6,4.2-4.1,4.6-7c2.7-18.4,4.4-46.5,4.4-78c0-29.3-1.5-55.6-3.8-73.9c-0.6-5-4.9-8.7-9.9-8.7
	H292.8c-5,0-9.3,3.7-9.9,8.7c-2.3,18.3-3.8,44.6-3.8,73.9c0,31.5,1.7,59.6,4.4,78c0.4,2.9,2.1,5.5,4.6,7l67.9,42.2
	c7.3,4.5,16.5,4.5,23.8,0L447.6,404.5z"/>
<path class="st8" d="M457.7,244.9c-0.9-7.5-7.3-13.1-14.9-13.1h-89.1c-2.8-21.6-7.8-41.9-14.8-60.3c12.9-5,24.9-10.9,35.6-17.8
	c13.9,16.2,25,34.9,32.5,55.5c0.7,2,2.7,3.3,4.7,3.3c0.6,0,1.1-0.1,1.7-0.3c2.6-0.9,3.9-3.8,3-6.4c-20.9-57.4-68.3-101.2-127-117.4
	c0-0.6,0-1.2,0-1.8c0-27.7-22.6-50.3-50.3-50.3S189,59,189,86.8c0,0.6,0,1.2,0,1.7c-17,4.7-33.3,11.7-48.4,21
	c-4.3-1.2-8.9-1.9-13.6-1.9c-27.7,0-50.3,22.6-50.3,50.3s22.6,50.3,50.3,50.3c0.5,0,1,0,1.5,0c-4,18.4-6.1,37.6-6.5,57.3H60.5
	c0.6-22.4,5.3-44.1,14-64.7c1.1-2.5-0.1-5.5-2.7-6.6c-2.5-1.1-5.5,0.1-6.6,2.7c-9.9,23.3-14.9,48.1-14.9,73.6c0,30.3,7,59.3,20.7,86
	c12.8,24.9,31.3,47,53.6,64c-2.1,5.5-3.2,11.5-3.2,17.7c0,27.7,22.6,50.3,50.3,50.3c20.7,0,38.6-12.6,46.3-30.6
	c6.9,0.8,14,1.2,21,1.2c31.6,0,62.8-7.9,90.3-23l23.9,14.8c4.5,2.8,9.5,4.2,14.5,4.2s10-1.4,14.5-4.2l67.9-42.2
	c3.8-2.3,6.3-6.2,6.9-10.6c2.8-19.4,4.4-48,4.4-78.7C461.5,291.2,460.1,264.1,457.7,244.9L457.7,244.9z M343.7,231.9h-50.9
	c-7.5,0-13.9,5.6-14.9,13.1c-0.8,6.1-1.4,13-2,20.5h-31.8v-76.2c30.1-0.5,59.4-5.5,85.4-14.3C336.1,192.2,341,211.5,343.7,231.9
	L343.7,231.9z M159.5,389.5c-2.5-4.6-4.8-9.4-7-14.4c24.8-8.3,52.8-13,81.6-13.5v87.3c-4.3-0.3-8.5-1.1-12.7-2.3
	c0.5-2.7,0.7-5.5,0.7-8.4c0-27.7-22.6-50.3-50.3-50.3C167.6,387.9,163.4,388.5,159.5,389.5L159.5,389.5z M274.8,353.7
	c-10.1-1.2-20.3-1.9-30.6-2.1v-76.2h31.1c-0.8,13.6-1.2,28.7-1.2,44C274.1,331.3,274.3,342.8,274.8,353.7z M234.1,351.6
	c-30.1,0.5-59.4,5.5-85.4,14.2c-10.3-27-16.1-58.2-16.6-90.4h102V351.6z M244.1,361.6c10.5,0.2,20.9,0.9,31.1,2.2
	c0.8,13.1,1.8,24.9,3.2,34.3c0.6,4.4,3.2,8.2,6.9,10.6l14.3,8.9c-16.5,19-35.6,29.8-55.5,31.3V361.6z M170.8,133.2
	c7.1-9.8,14.9-18.1,23.2-24.6c7.4,15.4,22.5,26.4,40.2,28.2v42.5c-20.3-0.3-40-2.7-58.9-7c1.3-4.5,2.1-9.3,2.1-14.3
	C177.3,148.9,174.9,140.5,170.8,133.2L170.8,133.2z M284.5,108.7c16.6,13.1,30.8,32.8,41.3,57c-24.9,8.3-52.9,13-81.7,13.5v-42.4
	C261.9,135.1,277,124.1,284.5,108.7z M367.7,146.3c-9.8,6.1-20.8,11.5-32.5,16c-11.8-27.2-28-49.3-47.1-63.5c0-0.1,0-0.2,0.1-0.3
	C318.8,107.3,346.1,124,367.7,146.3z M239.3,46.5c22.2,0,40.3,18.1,40.3,40.3S261.5,127,239.3,127S199,109,199,86.8
	S217.1,46.5,239.3,46.5L239.3,46.5z M190.4,98.5c0,0.1,0,0.1,0,0.2c-9.3,6.8-17.9,15.5-25.8,25.9c-3.6-4.1-7.8-7.5-12.6-10.2
	C164.2,107.6,177,102.3,190.4,98.5L190.4,98.5z M86.8,157.9c0-22.2,18.1-40.3,40.3-40.3s40.3,18.1,40.3,40.3s-18.1,40.3-40.3,40.3
	S86.8,180.1,86.8,157.9z M139.1,206.7c14-3.5,25.7-12.8,32.3-25.2c20,4.8,41.1,7.3,62.7,7.7v76.2h-102
	C132.4,245.2,134.8,225.5,139.1,206.7L139.1,206.7z M60.5,275.4h61.6c0.5,33.4,6.5,65.7,17.2,93.8c-12.9,5-24.9,10.9-35.6,17.7
	c-9.2-10.7-17.2-22.5-23.6-35C67.8,328,61.3,302.3,60.5,275.4L60.5,275.4z M110.6,394.5c9.8-6.1,20.7-11.5,32.5-16
	c2.2,5,4.5,9.8,6.9,14.5c-8.5,4.1-15.6,10.5-20.6,18.4C122.7,406.2,116.4,400.5,110.6,394.5z M171.9,478.5
	c-22.2,0-40.3-18.1-40.3-40.3s18.1-40.3,40.3-40.3s40.3,18.1,40.3,40.3S194.1,478.5,171.9,478.5z M287.6,442.4
	c7.2-5.3,14.1-11.8,20.6-19.4l11.3,7C309.3,435.1,298.6,439.3,287.6,442.4z M447.2,396.7c-0.2,1.4-1,2.7-2.3,3.5L377,442.4
	c-5.7,3.5-12.8,3.5-18.5,0l-67.9-42.2c-1.3-0.8-2.1-2.1-2.3-3.5c-2.7-18.9-4.3-47.1-4.3-77.3c0-27.8,1.4-54.5,3.8-73.3
	c0.3-2.5,2.4-4.3,4.9-4.3h150.1c2.5,0,4.6,1.9,4.9,4.3c2.4,18.7,3.8,45.4,3.8,73.3C451.5,349.7,450,377.8,447.2,396.7L447.2,396.7z"
	/>
<path class="st6" d="M367.8,266.8v61.5h-58.7c0-2.9,0-5.9,0-8.9c0-17.8,0.6-35.1,1.6-49.9c0.1-1.6,1.4-2.8,3-2.8H367.8z"/>
<path class="st9" d="M309.1,328.3h58.7v90.4l-54.6-34c-0.8-0.5-1.3-1.3-1.4-2.2C310.3,367.7,309.3,348.5,309.1,328.3L309.1,328.3z"
	/>
<path class="st9" d="M426.6,319.5c0,3,0,5.9,0,8.9h-58.7v-61.5H422c1.6,0,2.9,1.2,3,2.8C426,284.4,426.6,301.6,426.6,319.5z"/>
<path class="st6" d="M426.5,328.3c-0.2,20.2-1.2,39.4-2.7,54.3c-0.1,0.9-0.6,1.7-1.4,2.2l-54.6,34v-90.4L426.5,328.3z"/>
<path class="st10" d="M437.6,193.1c-2.8,0-5-2.2-5-5c0-3.3-2.7-6-6-6c-2.8,0-5-2.2-5-5s2.2-5,5-5c3.3,0,6-2.7,6-6c0-2.8,2.2-5,5-5
	s5,2.2,5,5c0,3.3,2.7,6,6,6c2.8,0,5,2.2,5,5s-2.2,5-5,5c-3.3,0-6,2.7-6,6C442.6,190.9,440.3,193.1,437.6,193.1z"/>
<path class="st6" d="M81.9,446c-1.3,0-2.6-0.5-3.5-1.5l-11-11c-0.9-0.9-1.5-2.2-1.5-3.5s0.5-2.6,1.5-3.5l11-11c2-2,5.1-2,7.1,0
	l11,11c2,2,2,5.1,0,7.1l-11,11C84.5,445.5,83.2,446,81.9,446z M77.9,430l3.9,3.9l3.9-3.9l-3.9-3.9L77.9,430z"/>
<path class="st7" d="M408.2,137.2c-1.3,0-2.6-0.5-3.5-1.5l-11-11c-2-2-2-5.1,0-7.1l11-11c0.9-0.9,2.2-1.5,3.5-1.5s2.6,0.5,3.5,1.5
	l11,11c0.9,0.9,1.5,2.2,1.5,3.5s-0.5,2.6-1.5,3.5l-11,11C410.7,136.7,409.4,137.2,408.2,137.2L408.2,137.2z M404.3,121.2l3.9,3.9
	l3.9-3.9l-3.9-3.9L404.3,121.2z"/>
<path class="st7" d="M154.1,72.4c-1.3,0-2.6-0.5-3.5-1.5l-11-11c-0.9-0.9-1.5-2.2-1.5-3.5s0.5-2.6,1.5-3.5l11-11
	c0.9-0.9,2.2-1.5,3.5-1.5s2.6,0.5,3.5,1.5l11,11c2,2,2,5.1,0,7.1l-11,11C156.7,71.9,155.4,72.4,154.1,72.4L154.1,72.4z M150.2,56.4
	l3.9,3.9l3.9-3.9l-3.9-3.9L150.2,56.4z"/>
</svg>
