<?xml version="1.0" encoding="utf-8"?>
<!-- Generator: Adobe Illustrator 24.0.1, SVG Export Plug-In . SVG Version: 6.00 Build 0)  -->
<svg version="1.1" id="Capa_1" xmlns="http://www.w3.org/2000/svg" xmlns:xlink="http://www.w3.org/1999/xlink" x="0px" y="0px"
	 viewBox="0 0 512 512" style="enable-background:new 0 0 512 512;" xml:space="preserve">
<style type="text/css">
	.st0{fill:url(#SVGID_1_);}
	.st1{opacity:0.1;fill:#590BB2;enable-background:new    ;}
	.st2{fill:#C182F9;}
	.st3{fill:#FFE783;}
	.st4{fill:#F4A422;}
	.st5{fill:#AFABC6;}
	.st6{fill:#DDD9E4;}
	.st7{fill:#E8E6ED;}
	.st8{fill:#E2CCFF;}
	.st9{fill:#F5F4F9;}
	.st10{fill:#590BB2;}
</style>
<linearGradient id="SVGID_1_" gradientUnits="userSpaceOnUse" x1="206.867" y1="257.9998" x2="802.41" y2="257.9998" gradientTransform="matrix(1 0 0 -1 0 514)">
	<stop  offset="7.011211e-04" style="stop-color:#FFF0D5"/>
	<stop  offset="0.5112" style="stop-color:#FFDFFF"/>
	<stop  offset="1" style="stop-color:#D9CEFF"/>
</linearGradient>
<path class="st0" d="M382.6,174c-0.2,0-0.4,0-0.6,0c-32-0.1-62.4-13.8-83.4-38c-31.4-36-77.6-58.6-129.1-58.4
	C76,78-1.2,156.6,0,250.1c1.2,93,77,168,170.2,168c26.3,0,51.3-6,73.5-16.7c19.2-9.2,42.1-6.8,59,6.2c21.9,16.7,49.2,26.7,78.8,26.8
	c71.4,0.1,130-58,130.4-129.4C512.4,232.9,454.6,174.4,382.6,174z"/>
<path class="st1" d="M424.5,49.5H204.6c-8.3,0-15,6.7-15,15v82.2h-79.3c-4.2,0-7.5,3.4-7.5,7.5v70.6c0,4.2,3.4,7.5,7.5,7.5h79.3
	v122.5H85.7c-5.5,0-10,4.5-10,10v68.6c0,5.5,4.5,10,10,10h246.8c5.5,0,10-4.5,10-10v-39.9h82c8.3,0,15-6.7,15-15V64.5
	C439.4,56.2,432.7,49.5,424.5,49.5L424.5,49.5z"/>
<path class="st2" d="M379.3,466.6c-2.8,0-5-2.2-5-5c0-3.3-2.7-6-6-6c-2.8,0-5-2.2-5-5s2.2-5,5-5c3.3,0,6-2.7,6-6c0-2.8,2.2-5,5-5
	s5,2.2,5,5c0,3.3,2.7,6,6,6c2.8,0,5,2.2,5,5s-2.2,5-5,5c-3.3,0-6,2.7-6,6C384.3,464.3,382.1,466.6,379.3,466.6z"/>
<path class="st3" d="M124,74.5c-2.8,0-5-2.2-5-5c0-3.3-2.7-6-6-6c-2.8,0-5-2.2-5-5s2.2-5,5-5c3.3,0,6-2.7,6-6c0-2.8,2.2-5,5-5
	s5,2.2,5,5c0,3.3,2.7,6,6,6c2.8,0,5,2.2,5,5s-2.2,5-5,5c-3.3,0-6,2.7-6,6C129,72.3,126.8,74.5,124,74.5z"/>
<path class="st4" d="M102.8,151c-1.3,0-2.6-0.5-3.5-1.5l-11-11c-0.9-0.9-1.5-2.2-1.5-3.5s0.5-2.6,1.5-3.5l11-11c2-2,5.1-2,7.1,0
	l11,11c0.9,0.9,1.5,2.2,1.5,3.5s-0.5,2.6-1.5,3.5l-11,11C105.3,150.5,104.1,151,102.8,151z M98.8,135l3.9,3.9l3.9-3.9l-3.9-3.9
	L98.8,135z"/>
<path class="st2" d="M157.1,134.7c-2.8,0-5-2.2-5-5c0-3.3-2.7-6-6-6c-2.8,0-5-2.2-5-5s2.2-5,5-5c3.3,0,6-2.7,6-6c0-2.8,2.2-5,5-5
	s5,2.2,5,5c0,3.3,2.7,6,6,6c2.8,0,5,2.2,5,5s-2.2,5-5,5c-3.3,0-6,2.7-6,6C162.1,132.4,159.9,134.7,157.1,134.7z"/>
<path class="st5" d="M439.4,85.5v314.1c0,8.3-6.7,15-15,15H204.6c-8.3,0-15-6.7-15-15V85.5c0-8.3,6.7-15,15-15h219.9
	C432.7,70.5,439.4,77.2,439.4,85.5z"/>
<path class="st6" d="M189.6,375.9v23.7c0,8.3,6.7,15,15,15h219.9c8.3,0,15-6.7,15-15v-23.7H189.6z"/>
<path class="st7" d="M244.1,70.5v344h-39.6c-8.3,0-15-6.7-15-15V85.5c0-8.3,6.7-15,15-15H244.1z"/>
<path class="st6" d="M226.2,189.4V260c0,4.2-3.4,7.5-7.5,7.5h-29.1v-85.6h29.1C222.8,181.9,226.2,185.3,226.2,189.4L226.2,189.4z"/>
<path class="st4" d="M439.4,118.7V85.5c0-8.3-6.7-15-15-15H204.6c-8.3,0-15,6.7-15,15v33.2L439.4,118.7L439.4,118.7z"/>
<path class="st8" d="M319.5,231.2h-15.7c-2.6,0-5,1.9-5.2,4.5c-0.3,3,2.1,5.5,5,5.5h16c2.8,0,5-2.2,5-5
	C324.5,233.5,322.2,231.2,319.5,231.2L319.5,231.2z"/>
<path class="st3" d="M379.9,231.2h-37.4c-2.8,0-5,2.2-5,5c0,2.8,2.2,5,5,5h37.6c2.9,0,5.3-2.5,5-5.5
	C384.9,233.1,382.5,231.2,379.9,231.2L379.9,231.2z"/>
<path class="st8" d="M355.5,252.2h-51.7c-2.6,0-5,1.9-5.2,4.5c-0.3,3,2.1,5.5,5,5.5h52c2.8,0,5-2.2,5-5
	C360.5,254.4,358.2,252.2,355.5,252.2L355.5,252.2z"/>
<path class="st3" d="M409.9,252.2h-31.4c-2.8,0-5,2.2-5,5c0,2.8,2.2,5,5,5h31.6c2.9,0,5.3-2.5,5-5.5
	C414.9,254.1,412.5,252.2,409.9,252.2L409.9,252.2z"/>
<path class="st8" d="M340.5,273.2h-36.7c-2.6,0-5,1.9-5.2,4.5c-0.3,3,2.1,5.5,5,5.5h37c2.8,0,5-2.2,5-5
	C345.5,275.4,343.2,273.2,340.5,273.2L340.5,273.2z"/>
<path class="st3" d="M379.9,273.2h-16.4c-2.8,0-5,2.2-5,5s2.2,5,5,5h16.6c2.9,0,5.3-2.5,5-5.5C384.9,275.1,382.5,273.2,379.9,273.2
	L379.9,273.2z"/>
<path class="st3" d="M409.9,294.1h-61.4c-2.8,0-5,2.2-5,5s2.2,5,5,5h61.6c2.9,0,5.3-2.5,5-5.5C414.9,296.1,412.5,294.1,409.9,294.1
	L409.9,294.1z"/>
<path class="st8" d="M325.5,294.1h-21.7c-2.6,0-5,1.9-5.2,4.5c-0.3,3,2.1,5.5,5,5.5h22c2.8,0,5-2.2,5-5
	C330.5,296.4,328.2,294.1,325.5,294.1L325.5,294.1z"/>
<path class="st9" d="M290.5,196.4h-16.7c-2.6,0-5,1.9-5.2,4.5c-0.3,3,2.1,5.5,5,5.5h17c2.8,0,5-2.2,5-5
	C295.5,198.6,293.2,196.4,290.5,196.4L290.5,196.4z"/>
<path class="st9" d="M379.9,196.4h-65.1c-2.8,0-5,2.2-5,5c0,2.8,2.2,5,5,5h65.3c2.9,0,5.3-2.5,5-5.5
	C384.9,198.3,382.5,196.4,379.9,196.4L379.9,196.4z"/>
<path class="st9" d="M290.5,332h-16.7c-2.6,0-5,1.9-5.2,4.5c-0.3,3,2.1,5.5,5,5.5h17c2.8,0,5-2.2,5-5
	C295.5,334.2,293.2,332,290.5,332L290.5,332z"/>
<path class="st9" d="M379.9,332h-65.1c-2.8,0-5,2.2-5,5c0,2.8,2.2,5,5,5h65.3c2.9,0,5.3-2.5,5-5.5C384.9,333.9,382.5,332,379.9,332
	L379.9,332z"/>
<path class="st2" d="M218.7,253.4H110.3c-4.2,0-7.5-3.4-7.5-7.5v-70.6c0-4.2,3.4-7.5,7.5-7.5h108.4c4.2,0,7.5,3.4,7.5,7.5v70.6
	C226.2,250,222.8,253.4,218.7,253.4z"/>
<path class="st9" d="M141.1,227.6c-1.3,0-2.6-0.5-3.5-1.5l-12-12c-2-2-2-5.1,0-7.1l12-12c2-2,5.1-2,7.1,0c2,2,2,5.1,0,7.1l-8.5,8.5
	l8.5,8.5c2,2,2,5.1,0,7.1C143.7,227.1,142.4,227.6,141.1,227.6L141.1,227.6z"/>
<path class="st9" d="M187.9,193.5c1.3,0,2.6,0.5,3.5,1.5l12,12c2,2,2,5.1,0,7.1l-12,12c-2,2-5.1,2-7.1,0c-2-2-2-5.1,0-7.1l8.5-8.5
	l-8.5-8.5c-2-2-2-5.1,0-7.1C185.3,194,186.6,193.5,187.9,193.5L187.9,193.5z"/>
<path class="st9" d="M157.7,227.6c-0.8,0-1.7-0.2-2.5-0.6c-2.4-1.4-3.3-4.4-1.9-6.8l13.6-24.1c1.4-2.4,4.4-3.3,6.8-1.9
	c2.4,1.4,3.3,4.4,1.9,6.8L162,225.1C161.1,226.7,159.4,227.6,157.7,227.6L157.7,227.6z"/>
<path class="st9" d="M332.5,464.5H85.7c-5.5,0-10-4.5-10-10v-68.6c0-5.5,4.5-10,10-10h246.8c5.5,0,10,4.5,10,10v68.6
	C342.5,460,338,464.5,332.5,464.5z"/>
<g>
	<path class="st10" d="M227.6,89.5c-2.8,0-5,2.2-5,5v0.1c0,2.8,2.2,5,5,5s5-2.2,5-5v-0.1C232.6,91.8,230.4,89.5,227.6,89.5z"/>
	<path class="st10" d="M247,89.5c-2.8,0-5,2.2-5,5v0.1c0,2.8,2.2,5,5,5s5-2.2,5-5v-0.1C252,91.8,249.7,89.5,247,89.5z"/>
	<path class="st10" d="M266.3,89.5c-2.8,0-5,2.2-5,5v0.1c0,2.8,2.2,5,5,5s5-2.2,5-5v-0.1C271.3,91.8,269,89.5,266.3,89.5z"/>
	<path class="st10" d="M424.5,65.5H204.6c-11,0-20,9-20,20v54.7c0,2.8,2.2,5,5,5s5-2.2,5-5v-16.5h239.9v275.9c0,5.5-4.5,10-10,10
		h-77v-23.7c0-8.3-6.7-15-15-15H217.1c-2.8,0-5,2.2-5,5s2.2,5,5,5h115.4c2.8,0,5,2.2,5,5v68.6c0,2.8-2.2,5-5,5H85.7
		c-2.8,0-5-2.2-5-5v-68.6c0-2.8,2.2-5,5-5h103.9c2.8,0,5-2.2,5-5V258.4h24.1c6.9,0,12.5-5.6,12.5-12.5v-70.6
		c0-6.9-5.6-12.5-12.5-12.5H110.3c-6.9,0-12.5,5.6-12.5,12.5v30.3h-5.1c-12.1,0-22,9.9-22,22v32.6c0,12.1,9.9,22,22,22h40
		c6.7,0,12.1,5.4,12.1,12.1s-5.4,12.1-12.1,12.1h-40c-12.1,0-22,9.9-22,22s9.9,22,22,22h38.1c6.6,0,12,5.4,12,12v8.6H85.7
		c-8.3,0-15,6.7-15,15v68.6c0,8.3,6.7,15,15,15h246.8c8.3,0,15-6.7,15-15v-34.9h77c11,0,20-9,20-20V85.5
		C444.4,74.5,435.5,65.5,424.5,65.5L424.5,65.5z M107.8,175.3c0-1.4,1.1-2.5,2.5-2.5h108.4c1.4,0,2.5,1.1,2.5,2.5v70.6
		c0,1.4-1.1,2.5-2.5,2.5H110.3c-1.4,0-2.5-1.1-2.5-2.5V175.3z M130.8,340.3H92.7c-6.6,0-12-5.4-12-12s5.4-12,12-12h40
		c12.2,0,22.1-9.9,22.1-22.1s-9.9-22.1-22.1-22.1h-40c-6.6,0-12-5.4-12-12v-32.6c0-6.6,5.4-12,12-12h5.1v30.3
		c0,6.9,5.6,12.5,12.5,12.5h74.3v112.5h-31.8v-8.6C152.8,350.1,142.9,340.3,130.8,340.3z M194.6,113.7V85.5c0-5.5,4.5-10,10-10
		h219.9c5.5,0,10,4.5,10,10v28.2H194.6z"/>
	<path class="st10" d="M224.8,291.9c0-2.8-2.2-5-5-5s-5,2.2-5,5v0.1c0,2.8,2.2,5,5,5s5-2.2,5-5V291.9z"/>
	<path class="st10" d="M219.8,332.3c-2.8,0-5,2.2-5,5v0.1c0,2.8,2.2,5,5,5s5-2.2,5-5v-0.1C224.8,334.5,222.6,332.3,219.8,332.3z"/>
	<path class="st10" d="M103.8,400.8c0-2.8-2.2-5-5-5s-5,2.2-5,5v0.1c0,2.8,2.2,5,5,5s5-2.2,5-5V400.8z"/>
	<path class="st10" d="M128.3,400.8c0-2.8-2.2-5-5-5s-5,2.2-5,5v0.1c0,2.8,2.2,5,5,5s5-2.2,5-5V400.8z"/>
	<path class="st10" d="M147.8,405.9c2.8,0,5-2.2,5-5v-0.1c0-2.8-2.2-5-5-5s-5,2.2-5,5v0.1C142.8,403.7,145,405.9,147.8,405.9z"/>
	<path class="st10" d="M177.3,400.9v-0.1c0-2.8-2.2-5-5-5s-5,2.2-5,5v0.1c0,2.8,2.2,5,5,5S177.3,403.7,177.3,400.9z"/>
	<path class="st10" d="M201.8,400.9v-0.1c0-2.8-2.2-5-5-5s-5,2.2-5,5v0.1c0,2.8,2.2,5,5,5S201.8,403.7,201.8,400.9z"/>
	<path class="st10" d="M226.3,400.9v-0.1c0-2.8-2.2-5-5-5s-5,2.2-5,5v0.1c0,2.8,2.2,5,5,5S226.3,403.7,226.3,400.9z"/>
	<path class="st10" d="M250.8,400.9v-0.1c0-2.8-2.2-5-5-5s-5,2.2-5,5v0.1c0,2.8,2.2,5,5,5S250.8,403.7,250.8,400.9z"/>
	<path class="st10" d="M270.3,405.9c2.8,0,5-2.2,5-5v-0.1c0-2.8-2.2-5-5-5s-5,2.2-5,5v0.1C265.3,403.7,267.6,405.9,270.3,405.9z"/>
	<path class="st10" d="M294.8,405.9c2.8,0,5-2.2,5-5v-0.1c0-2.8-2.2-5-5-5s-5,2.2-5,5v0.1C289.8,403.7,292.1,405.9,294.8,405.9z"/>
	<path class="st10" d="M319.3,405.9c2.8,0,5-2.2,5-5v-0.1c0-2.8-2.2-5-5-5s-5,2.2-5,5v0.1C314.3,403.7,316.6,405.9,319.3,405.9z"/>
	<path class="st10" d="M106,420.1v0.1c0,2.8,2.2,5,5,5s5-2.2,5-5v-0.1c0-2.8-2.2-5-5-5S106,417.4,106,420.1z"/>
	<path class="st10" d="M130.5,420.1v0.1c0,2.8,2.2,5,5,5s5-2.2,5-5v-0.1c0-2.8-2.2-5-5-5S130.5,417.4,130.5,420.1z"/>
	<path class="st10" d="M165.1,420.2v-0.1c0-2.8-2.2-5-5-5s-5,2.2-5,5v0.1c0,2.8,2.2,5,5,5S165.1,423,165.1,420.2z"/>
	<path class="st10" d="M189.6,420.2v-0.1c0-2.8-2.2-5-5-5s-5,2.2-5,5v0.1c0,2.8,2.2,5,5,5S189.6,423,189.6,420.2z"/>
	<path class="st10" d="M209.1,415.1c-2.8,0-5,2.2-5,5v0.1c0,2.8,2.2,5,5,5s5-2.2,5-5v-0.1C214.1,417.4,211.8,415.1,209.1,415.1z"/>
	<path class="st10" d="M238.6,420.2v-0.1c0-2.8-2.2-5-5-5s-5,2.2-5,5v0.1c0,2.8,2.2,5,5,5S238.6,423,238.6,420.2z"/>
	<path class="st10" d="M263.1,420.2v-0.1c0-2.8-2.2-5-5-5c-2.8,0-5,2.2-5,5v0.1c0,2.8,2.2,5,5,5C260.8,425.2,263.1,423,263.1,420.2z
		"/>
	<path class="st10" d="M287.6,420.2v-0.1c0-2.8-2.2-5-5-5s-5,2.2-5,5v0.1c0,2.8,2.2,5,5,5S287.6,423,287.6,420.2z"/>
	<path class="st10" d="M312.1,420.2v-0.1c0-2.8-2.2-5-5-5s-5,2.2-5,5v0.1c0,2.8,2.2,5,5,5S312.1,423,312.1,420.2z"/>
	<path class="st10" d="M98.8,434.4c-2.8,0-5,2.2-5,5v0.1c0,2.8,2.2,5,5,5s5-2.2,5-5v-0.1C103.8,436.7,101.5,434.4,98.8,434.4z"/>
	<path class="st10" d="M123.3,434.4c-2.8,0-5,2.2-5,5v0.1c0,2.8,2.2,5,5,5s5-2.2,5-5v-0.1C128.3,436.7,126.1,434.4,123.3,434.4z"/>
	<path class="st10" d="M142.8,439.5c0,2.8,2.2,5,5,5h98c2.8,0,5-2.2,5-5s-2.2-5-5-5h-98C145,434.5,142.8,436.8,142.8,439.5z"/>
	<path class="st10" d="M265.3,439.5c0,2.8,2.2,5,5,5s5-2.2,5-5v-0.1c0-2.8-2.2-5-5-5s-5,2.2-5,5V439.5z"/>
	<path class="st10" d="M289.8,439.5c0,2.8,2.2,5,5,5s5-2.2,5-5v-0.1c0-2.8-2.2-5-5-5s-5,2.2-5,5V439.5z"/>
	<path class="st10" d="M314.3,439.5c0,2.8,2.2,5,5,5s5-2.2,5-5v-0.1c0-2.8-2.2-5-5-5s-5,2.2-5,5V439.5z"/>
</g>
</svg>
